<?xml version="1.0" standalone="no"?>
<!DOCTYPE svg PUBLIC "-//W3C//DTD SVG 20010904//EN"
 "http://www.w3.org/TR/2001/REC-SVG-20010904/DTD/svg10.dtd">
<svg version="1.0" xmlns="http://www.w3.org/2000/svg"
 width="1248.000000pt" height="1782.000000pt" viewBox="0 0 1248.000000 1782.000000"
 preserveAspectRatio="xMidYMid meet">
<metadata>
Created by michel@cadotsch.ch
</metadata>
<g transform="translate(0.000000,1782.000000) scale(0.100000,-0.100000)"
fill="#000000" stroke="none">
<path d="M7700 17798 c-19 -12 -57 -40 -85 -63 -27 -23 -90 -67 -139 -99 -176
-114 -305 -253 -333 -358 -7 -29 -15 -60 -19 -70 -4 -15 0 -18 28 -18 41 0 58
-15 58 -51 0 -27 0 -27 -82 -31 -77 -3 -91 -7 -198 -60 -63 -31 -144 -64 -179
-73 -68 -17 -221 -93 -257 -126 -23 -22 -149 -78 -176 -79 -9 0 -65 -16 -124
-35 -88 -29 -118 -44 -173 -89 -70 -57 -218 -126 -269 -126 -45 0 -135 -30
-161 -53 -13 -12 -31 -38 -40 -57 -9 -19 -29 -54 -44 -78 -47 -72 -51 -87 -37
-122 9 -21 31 -42 66 -62 61 -34 95 -81 101 -142 5 -42 4 -43 -43 -73 -45 -27
-161 -75 -303 -125 -30 -11 -71 -20 -91 -20 -66 -1 -171 76 -186 137 -5 19 3
35 30 67 55 64 43 88 -27 52 -47 -25 -95 -80 -103 -118 -9 -51 13 -83 81 -121
33 -18 80 -44 105 -59 44 -26 48 -26 160 -20 92 5 125 11 168 31 73 34 166 55
194 44 32 -13 78 -59 78 -77 0 -9 -13 -35 -30 -59 -16 -24 -30 -46 -30 -49 0
-13 53 -5 90 14 46 24 79 25 106 5 19 -14 18 -14 -6 -32 -28 -21 -98 -61 -120
-69 -8 -3 -30 -27 -47 -54 -21 -32 -48 -57 -75 -71 -59 -29 -108 -67 -108 -83
0 -25 54 -39 97 -26 52 17 173 100 173 119 0 32 22 -8 23 -42 1 -29 -14 -54
-85 -148 -103 -137 -106 -140 -189 -177 -37 -17 -70 -36 -74 -43 -10 -16 24
-42 45 -33 8 3 60 15 115 27 l100 21 102 99 c102 99 181 205 272 366 23 41 60
96 83 123 52 63 207 188 232 188 10 0 82 -31 160 -69 247 -120 268 -125 379
-91 109 34 204 115 256 218 25 49 52 55 76 18 12 -17 14 -30 7 -43 -5 -10 -15
-41 -21 -70 -18 -75 -63 -122 -173 -178 l-92 -48 -141 -5 c-137 -4 -158 -1
-236 32 -23 10 -47 -18 -54 -62 -11 -72 -25 -109 -57 -152 -18 -24 -49 -68
-68 -98 -29 -45 -58 -71 -167 -146 -248 -171 -463 -358 -551 -479 -41 -57 -74
-90 -122 -122 -37 -25 -74 -47 -82 -50 -22 -9 -83 66 -118 142 -16 34 -40 78
-54 96 -29 38 -97 188 -128 282 -11 33 -49 123 -85 200 -62 133 -69 143 -142
210 -69 63 -86 73 -161 96 -271 84 -338 79 -493 -33 -47 -34 -168 -102 -286
-160 -112 -55 -240 -120 -285 -145 -44 -25 -129 -64 -187 -88 -99 -41 -323
-165 -398 -222 -44 -34 -111 -139 -111 -174 0 -47 39 -136 71 -163 16 -14 49
-31 72 -37 55 -14 69 -22 65 -34 -2 -8 -48 -10 -143 -5 -11 0 -38 11 -60 23
-37 21 -39 25 -37 63 3 36 0 44 -33 68 -22 17 -42 25 -54 21 -10 -3 -60 -46
-110 -95 -50 -49 -118 -108 -151 -130 -76 -52 -85 -67 -60 -108 11 -18 26 -32
34 -32 29 0 188 63 214 84 68 56 92 68 107 56 19 -16 19 -39 1 -54 -7 -6 -28
-52 -46 -103 -18 -51 -43 -102 -56 -114 -31 -29 -31 -64 1 -85 45 -30 168 -4
240 51 17 12 39 25 51 29 11 3 30 15 41 26 12 11 36 28 55 39 31 19 86 82 144
163 l26 37 -29 50 c-33 60 -29 71 37 108 25 14 79 58 121 98 94 89 111 96 149
60 l29 -28 -25 -33 c-28 -36 -26 -60 6 -89 31 -28 88 -6 153 58 46 46 56 62
76 132 14 48 39 104 66 145 60 89 72 102 130 135 28 16 78 50 113 76 73 55
155 79 271 79 76 0 160 -29 193 -66 36 -41 98 -160 98 -189 0 -52 28 -180 70
-315 22 -72 54 -199 70 -283 32 -154 51 -203 124 -310 14 -21 26 -40 26 -42 0
-11 82 -125 90 -125 13 0 26 27 43 93 17 63 63 147 113 205 27 32 33 35 48 23
22 -18 20 -47 -6 -89 -11 -19 -27 -58 -34 -86 -7 -28 -23 -78 -35 -111 -29
-79 -29 -142 -1 -186 12 -19 32 -53 44 -76 12 -24 29 -44 37 -45 9 0 23 -2 31
-2 8 -1 46 24 83 56 38 32 72 58 77 58 4 0 36 16 70 35 34 19 70 35 80 35 10
0 33 -14 50 -31 33 -33 28 -49 -15 -49 -54 0 -233 -133 -265 -196 -20 -42 -51
-74 -69 -74 -9 0 -27 8 -41 18 -44 29 -245 254 -275 307 -28 48 -81 132 -144
225 -17 25 -54 80 -83 123 -29 42 -69 107 -88 144 -37 70 -80 109 -149 133
-20 6 -93 39 -163 72 -106 51 -132 60 -161 54 -20 -4 -109 -56 -208 -123 -96
-63 -199 -127 -229 -141 -154 -70 -419 -207 -452 -233 -20 -16 -41 -29 -47
-29 -5 0 -22 -10 -38 -23 -15 -13 -57 -40 -93 -61 -317 -181 -458 -293 -651
-518 -37 -42 -61 -59 -110 -78 -54 -21 -64 -29 -67 -51 -2 -14 4 -31 12 -39
19 -15 49 -5 128 46 29 19 77 42 107 51 62 20 131 81 131 116 0 23 47 98 69
112 6 3 29 -9 51 -28 59 -50 143 -89 191 -89 22 1 57 9 77 20 20 11 72 38 115
61 42 22 84 41 92 41 20 0 41 -36 50 -85 4 -26 19 -52 46 -78 l39 -39 32 20
c22 13 46 45 72 93 21 41 56 104 77 140 25 42 39 78 39 100 0 19 8 48 18 65
53 97 89 147 155 215 57 60 92 86 157 120 76 38 94 43 172 47 l87 4 67 -42
c36 -23 86 -50 110 -60 43 -19 44 -21 44 -65 0 -35 10 -63 46 -127 26 -46 53
-94 60 -108 8 -14 14 -47 15 -75 2 -89 8 -99 63 -105 56 -6 79 -28 56 -55 -10
-12 -23 -15 -47 -10 l-33 6 0 -48 c1 -26 8 -66 16 -88 8 -22 24 -67 35 -100
28 -82 124 -238 178 -289 17 -17 31 -35 31 -42 0 -7 -20 -27 -44 -44 -47 -31
-86 -78 -86 -102 0 -7 -9 -19 -20 -26 -11 -7 -20 -23 -20 -36 0 -26 19 -44
105 -99 62 -40 91 -94 100 -185 15 -163 42 -317 66 -370 10 -24 46 -71 80
-103 59 -56 62 -62 62 -107 0 -26 -3 -76 -7 -113 -10 -80 0 -104 79 -180 76
-73 86 -109 52 -180 -23 -49 -51 -82 -216 -255 -27 -28 -61 -75 -76 -104 -20
-40 -35 -56 -68 -71 -23 -10 -54 -19 -68 -19 -40 0 -156 -38 -229 -75 -92 -47
-180 -145 -180 -200 0 -38 99 -150 114 -130 8 10 16 12 26 5 13 -8 12 -11 -5
-24 -20 -14 -20 -15 2 -59 22 -45 105 -161 124 -172 5 -4 19 -25 30 -48 12
-23 45 -73 73 -112 82 -110 82 -110 50 -156 -38 -56 -89 -93 -186 -139 -116
-54 -241 -85 -282 -69 -17 6 -67 14 -112 18 -97 9 -145 30 -236 106 -96 79
-129 142 -143 267 -6 53 -7 106 -3 117 4 12 39 44 77 72 60 44 69 54 61 70
-33 61 -296 179 -401 179 -42 0 -229 -75 -300 -120 -64 -42 -112 -97 -173
-201 -28 -46 -63 -97 -79 -113 l-28 -29 -29 28 c-15 15 -43 48 -60 74 -21 31
-50 57 -84 74 -28 15 -89 54 -136 87 -162 112 -348 194 -560 245 -52 13 -122
33 -155 46 -50 18 -77 21 -160 19 -55 -1 -111 -2 -125 -3 -14 0 -63 3 -111 8
-66 6 -99 4 -150 -9 -120 -30 -214 -67 -339 -133 -201 -106 -272 -163 -359
-292 -23 -33 -46 -63 -51 -66 -12 -7 -59 -77 -75 -111 -5 -12 -95 -104 -200
-204 -221 -212 -263 -260 -311 -355 -19 -38 -50 -92 -68 -118 -21 -30 -38 -72
-46 -110 -7 -34 -32 -141 -56 -237 -59 -234 -61 -366 -5 -316 24 22 33 20 29
-6 -2 -18 -10 -23 -31 -23 -29 0 -47 -18 -47 -47 0 -13 8 -18 29 -18 36 0 47
-14 33 -43 -5 -12 -23 -49 -38 -81 -27 -56 -28 -59 -10 -70 57 -34 61 -41 47
-84 -13 -37 -12 -48 11 -119 17 -52 44 -105 82 -158 31 -44 66 -100 77 -125
l21 -45 -19 -80 c-24 -98 -18 -135 37 -220 21 -33 57 -105 80 -159 34 -80 40
-106 35 -135 -8 -43 -29 -85 -66 -132 -54 -69 -30 -111 100 -170 l66 -30 -70
-31 c-97 -43 -205 -125 -205 -155 0 -33 22 -73 60 -106 28 -25 31 -33 25 -63
-3 -19 -15 -56 -27 -82 -36 -83 -58 -166 -58 -222 0 -64 22 -200 41 -250 39
-108 139 -207 269 -268 103 -47 236 -93 258 -89 25 5 52 -15 52 -40 0 -8 -17
-35 -38 -59 -71 -79 -171 -290 -263 -549 -53 -152 -79 -277 -89 -430 -7 -122
-25 -259 -36 -276 -11 -19 -4 -200 10 -250 9 -30 22 -99 30 -155 7 -55 23
-123 36 -150 12 -28 24 -80 27 -121 5 -66 4 -76 -20 -111 -36 -56 -87 -188
-87 -228 0 -20 -9 -72 -19 -117 -27 -114 -34 -216 -18 -247 11 -21 11 -27 -2
-36 -16 -13 -29 -154 -30 -334 -1 -105 23 -281 54 -390 8 -30 15 -74 15 -97 0
-23 7 -60 15 -80 8 -21 23 -76 34 -123 10 -47 30 -122 44 -168 39 -123 42
-183 16 -267 -56 -183 -59 -270 -14 -436 28 -106 63 -168 122 -216 l44 -36 35
16 c66 32 149 10 160 -43 16 -78 120 -212 195 -250 54 -28 138 -26 214 5 33
14 65 25 72 25 6 0 35 -22 65 -48 70 -63 95 -78 162 -96 31 -9 82 -23 114 -32
56 -16 147 -15 288 2 l52 6 78 -72 c67 -61 96 -80 194 -122 192 -84 258 -103
400 -117 41 -4 86 -12 100 -18 62 -26 103 -33 201 -33 85 0 116 4 169 24 132
48 277 127 272 148 -7 25 -35 48 -68 54 -38 7 -36 24 2 24 14 0 38 7 53 15 27
13 120 35 218 50 23 4 73 26 111 50 95 58 153 78 227 79 55 1 69 -3 107 -29
23 -17 46 -42 50 -55 4 -14 15 -51 23 -82 27 -99 32 -100 237 -32 173 57 173
57 231 116 81 82 107 144 107 254 0 82 -2 89 -45 170 -25 46 -45 92 -45 102 0
9 13 49 30 87 36 86 40 163 10 213 -11 18 -20 38 -21 45 0 6 -31 57 -67 112
-53 78 -80 108 -124 137 -61 41 -88 73 -109 131 -12 33 -11 41 4 70 14 26 16
46 11 103 -4 44 -3 74 3 77 10 6 43 -33 166 -197 75 -99 365 -404 448 -473 35
-28 98 -79 139 -113 41 -33 107 -82 145 -107 39 -25 89 -61 111 -79 56 -45
199 -132 249 -152 22 -9 61 -29 88 -45 45 -28 233 -114 307 -142 19 -7 55 -22
80 -33 25 -11 63 -26 85 -32 22 -7 45 -16 50 -20 6 -4 35 -13 65 -20 30 -7
109 -33 175 -58 98 -37 139 -47 220 -54 189 -16 280 -26 430 -49 204 -30 350
-35 446 -14 41 9 120 17 175 19 68 2 118 10 161 25 34 11 85 21 113 21 28 0
83 9 123 19 39 11 126 32 192 46 169 39 222 55 285 85 30 15 80 35 110 45 103
32 438 184 473 214 10 8 32 20 50 26 46 16 375 255 463 336 40 38 76 69 78 69
3 0 17 -5 32 -12 18 -9 37 -36 65 -94 44 -92 141 -219 213 -278 27 -22 85 -61
130 -88 67 -40 89 -48 130 -48 27 0 80 -11 118 -25 39 -14 91 -25 119 -25 36
0 67 -9 118 -35 74 -38 78 -38 255 -31 103 4 112 3 148 -21 l39 -24 41 37 41
37 93 -7 94 -7 56 45 c30 25 74 50 97 56 116 30 157 46 236 87 47 25 100 57
116 70 32 27 134 153 135 166 0 4 15 31 33 60 18 29 56 98 85 155 l53 102 -5
148 c-5 141 -7 151 -40 230 -20 45 -43 111 -51 145 -9 34 -24 87 -34 117 -38
112 -62 236 -51 264 5 15 10 49 10 75 0 54 33 163 61 203 11 15 45 52 77 82
70 68 68 74 -51 135 l-85 44 -69 -18 c-73 -20 -126 -24 -157 -12 -18 7 -16 12
22 50 26 26 53 71 75 122 18 44 52 105 75 135 23 30 42 60 42 66 0 6 17 34 39
62 67 91 75 184 22 261 -10 14 -39 65 -65 112 -56 105 -110 168 -169 199 -39
21 -48 22 -61 10 -14 -11 -16 -27 -10 -109 l7 -97 -59 -50 c-56 -48 -124 -89
-256 -156 -68 -34 -159 -115 -202 -179 -17 -25 -53 -77 -79 -116 -61 -89 -148
-340 -132 -381 3 -8 10 -46 15 -84 10 -70 42 -159 67 -189 7 -8 13 -18 13 -22
0 -3 -28 -25 -62 -49 -153 -103 -222 -206 -222 -333 -1 -49 7 -78 44 -164 25
-57 53 -109 62 -115 14 -9 33 -3 94 28 91 46 125 45 212 -6 100 -59 196 -214
194 -311 -2 -83 -59 -184 -158 -282 -66 -65 -91 -84 -136 -98 -133 -42 -246
-2 -394 139 -81 77 -152 176 -159 222 -4 20 -12 53 -20 72 -8 23 -13 91 -14
193 -2 152 -8 198 -30 212 -17 10 -13 23 8 30 35 11 44 57 38 182 l-6 116 47
56 c52 60 122 164 122 179 0 5 18 48 40 95 22 47 43 100 46 119 4 18 13 44 20
58 32 61 62 138 68 178 3 24 17 65 30 90 13 26 29 79 35 117 7 39 23 102 35
140 13 39 26 104 30 145 12 126 22 204 31 223 4 10 31 30 59 44 45 23 170 125
219 178 32 35 144 209 152 235 19 66 112 215 181 293 62 70 143 208 168 291 9
26 28 69 44 95 30 48 62 149 62 194 0 38 25 126 71 256 39 109 41 117 36 210
-9 184 -55 472 -98 610 -24 79 -19 105 29 161 46 54 102 147 102 169 0 24 -30
111 -48 139 -9 13 -52 51 -96 85 -114 87 -226 196 -243 236 -8 19 -26 49 -39
66 -13 18 -24 38 -24 45 0 12 -73 164 -89 184 -5 6 -11 24 -15 39 -4 16 -31
65 -61 110 -30 45 -64 111 -76 147 -11 35 -32 77 -45 93 -13 16 -24 35 -24 43
0 8 -28 47 -63 87 -80 91 -99 120 -92 140 4 10 -1 17 -13 21 -11 4 -40 28 -64
54 -40 43 -137 125 -156 134 -12 5 -52 65 -52 77 0 6 10 13 23 16 23 6 65 -10
132 -50 22 -14 47 -25 56 -25 22 0 55 -38 78 -91 28 -63 55 -95 107 -125 38
-23 49 -25 70 -15 40 18 101 14 123 -8 11 -11 31 -45 46 -76 41 -90 140 -230
185 -262 23 -15 60 -42 83 -59 23 -18 69 -46 102 -63 51 -26 71 -31 132 -31
75 0 123 14 123 36 0 15 -44 81 -70 106 -22 21 -46 119 -61 253 -11 96 -11
102 10 144 14 26 26 75 31 125 5 45 15 105 23 132 28 93 48 201 42 226 -9 36
26 73 106 114 38 19 69 38 69 42 0 4 20 30 45 59 66 76 58 103 -40 133 -22 7
-45 17 -51 21 -12 10 -21 108 -29 317 -4 103 -12 159 -35 248 -17 64 -30 124
-30 135 0 10 -15 40 -34 66 -18 27 -48 77 -65 112 -44 87 -100 158 -217 272
-95 92 -127 113 -245 162 -20 8 -49 32 -65 53 -76 104 -187 223 -210 224 -5 0
-32 14 -58 31 -52 32 -123 61 -196 79 -25 5 -68 18 -97 27 -45 14 -62 15 -130
5 -43 -7 -117 -12 -165 -12 -48 0 -107 -4 -130 -10 -260 -59 -278 -61 -278
-26 0 13 11 44 25 67 29 51 34 130 11 176 -8 15 -19 51 -25 78 -15 64 -37 95
-86 119 l-39 20 -46 -25 c-29 -17 -52 -38 -64 -63 -30 -60 -175 -197 -248
-233 -188 -93 -303 -96 -498 -12 -52 23 -124 58 -160 79 -36 20 -94 53 -130
73 -36 19 -112 70 -170 112 -58 43 -127 90 -155 106 -27 16 -89 59 -136 96
-47 37 -157 118 -244 178 -222 155 -286 201 -318 225 -26 21 -199 114 -322
173 -64 32 -105 63 -105 82 0 6 14 21 31 34 17 13 44 43 60 69 33 53 37 97 14
182 -14 52 -14 56 5 80 46 56 71 128 81 228 5 53 7 113 4 132 -7 44 20 201 42
243 46 91 71 115 134 133 78 22 90 43 64 111 -27 69 -105 148 -172 173 -67 25
-81 25 -178 0 -134 -34 -251 -97 -274 -146 -9 -20 -8 -31 5 -57 l17 -32 -25
23 c-21 19 -27 36 -31 90 -15 167 -44 259 -97 307 -52 47 4 85 69 46 20 -12
65 -36 100 -53 l64 -31 24 27 c12 15 23 33 23 41 0 8 -19 35 -42 62 -23 26
-57 82 -76 123 -19 41 -49 98 -68 125 -30 45 -34 59 -40 148 -6 84 -5 97 9 97
33 0 65 -20 87 -54 12 -20 42 -50 67 -67 37 -26 50 -30 81 -24 43 8 72 22 72
35 0 5 -31 42 -69 83 -50 55 -70 84 -75 113 -4 21 -15 52 -23 68 -28 54 -63
160 -63 191 0 16 4 37 10 45 5 9 5 19 -1 27 -18 21 -6 68 17 71 27 4 53 -32
80 -107 22 -63 75 -110 133 -118 86 -12 105 40 46 127 -71 106 -145 267 -145
316 0 19 4 42 10 52 5 9 14 29 20 45 16 46 82 32 158 -34 34 -30 79 -38 100
-17 18 18 15 33 -12 65 -42 50 -114 192 -142 278 -23 73 -25 88 -14 114 22 54
34 55 69 6 32 -44 41 -49 114 -59 29 -4 43 0 63 17 l26 23 -44 47 c-73 81
-108 124 -108 135 0 5 -13 40 -30 76 -37 82 -46 131 -30 151 21 25 47 17 69
-20 19 -33 23 -35 73 -35 60 0 101 17 106 43 2 10 -21 41 -61 80 -35 34 -72
77 -81 94 -46 90 -143 190 -241 247 -42 25 -54 28 -103 22 -48 -6 -63 -3 -109
20 -62 30 -65 48 -14 78 27 15 37 17 52 8 10 -7 23 -12 29 -12 15 0 1 49 -27
92 -26 39 -142 132 -208 167 -47 24 -85 55 -85 69 0 10 70 42 92 42 6 0 43
-16 82 -36 80 -41 159 -112 216 -194 21 -30 50 -66 64 -79 15 -14 41 -47 58
-74 25 -39 45 -56 92 -78 34 -16 77 -29 96 -29 19 0 64 -9 98 -20 114 -36 296
-23 395 27 53 27 29 55 -55 66 -96 13 -425 201 -551 315 -29 26 -73 61 -99 77
-27 17 -47 34 -45 39 5 15 97 44 190 60 106 19 200 21 229 5 12 -6 68 -10 134
-10 118 2 188 -10 239 -41 28 -16 68 -32 225 -90 30 -11 60 -24 65 -28 6 -5
64 -36 130 -70 136 -69 167 -87 247 -141 31 -22 60 -39 64 -39 24 0 213 -166
352 -310 53 -54 238 -323 282 -410 12 -24 38 -67 56 -95 32 -48 73 -156 123
-325 12 -41 32 -103 43 -137 18 -58 19 -79 13 -320 l-7 -258 -35 -100 c-79
-223 -138 -306 -252 -355 -52 -23 -111 -79 -111 -105 0 -19 49 -64 76 -71 12
-3 46 1 75 10 30 9 73 21 97 26 34 9 68 35 177 138 74 71 150 149 168 174 18
26 45 56 60 68 24 19 27 28 27 85 0 35 -4 75 -10 89 -8 22 -5 31 19 58 70 82
101 139 101 188 0 55 -15 73 -83 96 -40 14 -77 40 -66 47 2 2 37 31 77 66 71
62 72 64 72 112 0 27 -7 66 -15 86 -8 19 -15 54 -16 77 -2 64 -12 89 -48 113
l-33 23 -36 -30 c-45 -37 -62 -37 -93 -4 l-24 25 58 52 c50 45 58 57 57 88 0
20 9 64 21 99 23 72 22 92 -15 200 -42 121 -68 160 -110 160 -12 0 -52 -25
-89 -55 -53 -41 -79 -56 -115 -61 -26 -4 -55 -11 -64 -16 -10 -5 -18 -6 -18
-4 0 15 72 115 92 128 55 36 158 199 158 250 0 12 -24 47 -57 83 -32 34 -83
89 -114 123 -31 34 -64 62 -73 62 -10 0 -40 -36 -72 -86 -65 -98 -116 -154
-144 -154 -17 0 -60 43 -60 60 0 4 16 25 35 46 52 59 98 182 103 275 l4 76
-51 48 c-70 67 -138 113 -183 127 -34 10 -41 9 -62 -11 -13 -12 -27 -39 -30
-59 -3 -20 -23 -68 -44 -107 -30 -57 -42 -71 -64 -73 -34 -4 -44 24 -27 76 8
21 13 85 13 152 0 142 -11 168 -87 206 -28 14 -59 32 -67 39 -8 7 -37 25 -65
40 -166 92 -181 97 -210 69 -16 -17 -16 -48 1 -235 6 -65 -9 -89 -55 -89 -47
0 -59 25 -71 150 -6 63 -17 129 -25 145 -17 41 -91 122 -118 131 -12 4 -44 17
-72 29 -149 68 -199 78 -244 46 -25 -18 -28 -28 -40 -133 -8 -62 -13 -136 -12
-164 2 -66 -28 -109 -68 -99 -14 4 -34 14 -43 22 -20 18 -24 68 -7 79 11 7 10
29 -10 219 -4 39 -11 78 -15 87 -9 21 -119 105 -156 121 -14 5 -66 10 -116 10
-120 1 -169 -18 -228 -85 -51 -58 -65 -58 -94 -1 l-20 37 37 46 c47 59 51 62
135 95 111 43 201 55 292 40 93 -17 111 -28 170 -111 52 -73 46 -71 144 -35
40 15 80 20 149 21 103 0 109 -2 244 -100 53 -38 72 -46 127 -52 155 -17 207
-26 245 -41 22 -9 63 -18 90 -21 125 -13 439 -139 547 -219 18 -13 69 -43 113
-66 47 -24 112 -70 158 -111 43 -39 96 -82 118 -95 21 -14 39 -29 39 -34 0 -6
30 -47 68 -93 188 -231 250 -332 313 -508 20 -58 47 -132 59 -165 13 -33 26
-101 31 -151 4 -51 16 -109 25 -130 24 -55 22 -180 -5 -264 -11 -36 -21 -75
-21 -88 0 -13 -4 -31 -9 -40 -17 -33 -20 -79 -7 -97 12 -17 16 -16 65 10 61
34 120 105 204 246 52 88 57 101 56 150 -1 30 6 88 15 129 9 41 16 99 16 128
0 60 -22 122 -43 122 -8 0 -44 -13 -80 -30 -37 -16 -72 -30 -79 -30 -19 0 -68
48 -68 66 0 8 34 49 76 92 54 55 86 97 109 147 50 106 52 117 17 167 -16 24
-37 58 -46 76 -34 66 -118 75 -186 22 -53 -41 -98 -62 -128 -58 -22 2 -26 7
-24 28 1 14 15 41 31 60 76 95 131 204 131 258 0 31 -45 136 -78 180 -13 18
-41 44 -62 58 -36 24 -40 25 -69 10 -16 -9 -47 -37 -68 -63 -59 -73 -109 -123
-124 -123 -17 0 -59 60 -59 84 0 9 11 32 24 49 13 18 42 69 65 115 47 94 48
86 -27 186 -58 75 -125 146 -139 146 -6 0 -36 -31 -67 -70 -31 -38 -60 -70
-64 -70 -4 0 -20 -20 -35 -44 -28 -45 -65 -76 -90 -76 -7 0 -24 11 -36 24
l-23 24 26 45 c18 30 26 58 26 90 0 33 7 57 25 83 14 20 25 40 25 44 0 4 -14
25 -31 46 -17 22 -38 55 -46 75 -22 57 -118 141 -185 164 -58 19 -58 19 -85
-1 -21 -16 -34 -42 -55 -110 -15 -49 -27 -101 -27 -116 -1 -41 -19 -73 -54
-93 -30 -18 -30 -18 -54 9 -28 32 -28 45 -3 116 10 30 16 58 14 62 -3 4 -12
33 -19 63 -8 30 -26 78 -40 105 -23 45 -32 52 -107 88 -46 21 -113 47 -150 57
-65 16 -69 16 -105 -1 l-38 -19 -5 -172 c-5 -163 -6 -173 -29 -197 -22 -24
-25 -24 -52 -10 -39 20 -49 43 -49 112 0 67 -27 136 -83 211 -58 79 -68 83
-208 83 -136 0 -239 -23 -274 -62 -23 -25 -15 -71 20 -112 14 -16 25 -40 25
-52 0 -12 9 -56 20 -97 26 -98 25 -109 -4 -109 -39 0 -111 82 -140 161 -12 35
-31 58 -74 91 -70 56 -133 88 -169 88 -31 0 -226 -66 -260 -87 -23 -15 -36
-49 -48 -117 -8 -50 -62 -186 -81 -206 -12 -12 -18 -10 -44 15 -35 34 -37 49
-11 107 27 62 42 123 50 203 8 88 73 219 129 262 20 15 60 48 87 74 28 25 69
58 92 73 58 36 79 69 65 101 -9 20 -19 25 -49 25 -21 0 -54 -10 -73 -22z m-88
-997 c13 -11 37 -44 52 -75 27 -53 28 -62 24 -154 -6 -127 -29 -172 -86 -172
-22 0 -52 30 -52 52 0 10 9 36 20 58 25 50 25 101 0 182 -26 83 -26 128 -1
128 10 0 29 -9 43 -19z m-873 -72 c32 -19 32 -21 16 -39 -9 -10 -30 -22 -45
-25 -49 -11 -55 -27 -34 -96 15 -49 26 -66 54 -85 48 -33 77 -30 134 14 66 51
84 83 69 123 -11 28 -9 33 24 70 43 47 53 43 90 -41 28 -64 26 -72 -42 -147
-63 -71 -141 -97 -278 -91 -81 3 -99 7 -133 29 -21 14 -64 32 -94 39 -57 14
-90 34 -90 55 0 7 26 28 58 48 32 20 72 55 87 77 62 90 117 110 184 69z m-852
-318 c13 -19 23 -39 23 -46 0 -50 -248 -58 -267 -8 -7 17 12 32 42 33 11 0 49
14 85 30 36 16 72 29 80 27 8 -1 25 -17 37 -36z m-96 -307 c7 -9 13 -39 14
-67 0 -46 -3 -52 -32 -69 -44 -26 -68 -12 -76 44 -4 24 -10 53 -13 65 -5 18
-1 25 17 32 37 15 75 13 90 -5z m358 -68 c53 -28 54 -94 2 -116 -36 -14 -70
-6 -112 29 -31 27 -32 29 -20 60 22 52 63 61 130 27z m447 -3025 c68 -31 116
-82 159 -170 l39 -82 -22 -43 c-14 -25 -39 -53 -63 -67 -74 -45 -72 -43 -65
-83 4 -20 16 -46 27 -57 26 -26 54 -18 146 39 40 24 84 45 98 45 29 0 86 -37
135 -88 33 -34 34 -39 34 -108 0 -90 -32 -163 -79 -182 -45 -18 -158 -5 -187
21 -62 57 -103 47 -100 -25 4 -92 66 -175 167 -221 81 -37 129 -44 222 -30
104 15 141 27 185 62 37 29 98 117 98 142 0 21 -31 42 -90 61 -66 22 -104 59
-119 119 -23 92 -5 185 46 238 48 50 160 33 230 -34 34 -33 88 -43 103 -18 4
7 5 49 2 95 -4 64 -1 93 13 129 16 42 25 50 100 91 120 66 157 62 248 -24 37
-35 73 -89 64 -97 -2 -2 -40 -9 -85 -16 -100 -14 -114 -27 -171 -153 -35 -80
-42 -106 -51 -210 -18 -189 -50 -278 -108 -302 -39 -16 -72 -41 -72 -54 0 -17
67 -30 96 -19 58 23 99 -34 54 -75 -17 -15 -25 -16 -66 -6 -26 7 -60 19 -75
27 -39 20 -81 18 -134 -8 -67 -33 -58 -44 43 -51 91 -6 159 -27 169 -53 3 -9
0 -34 -6 -56 -17 -55 -52 -68 -184 -68 -69 0 -119 -5 -148 -16 -57 -20 -242
-28 -584 -25 -190 2 -285 -1 -320 -10 -34 -8 -156 -13 -375 -14 -207 -2 -343
-7 -375 -15 -27 -6 -83 -11 -124 -11 -117 1 -151 33 -151 142 0 50 12 55 151
64 100 7 179 27 179 46 0 5 -23 9 -50 9 -67 0 -120 22 -120 50 0 11 -10 40
-21 63 -12 23 -25 64 -28 92 -3 27 -10 49 -16 48 -5 0 -17 -21 -25 -46 -18
-54 -32 -71 -70 -87 -38 -16 -66 1 -108 63 -41 59 -52 103 -57 242 -3 66 -11
149 -17 185 -10 60 -15 69 -67 118 -31 29 -76 63 -101 76 -25 13 -53 33 -63
44 -18 20 -17 21 65 67 107 61 138 65 211 30 75 -37 102 -66 88 -94 -14 -26
-15 -77 -4 -165 8 -59 14 -72 39 -92 16 -13 41 -28 56 -33 24 -8 30 -6 47 15
11 14 23 38 26 55 18 81 152 77 272 -9 46 -33 67 -84 60 -149 -6 -62 -33 -103
-109 -171 -72 -65 -64 -102 32 -149 105 -51 163 -67 245 -68 74 0 85 3 140 35
32 19 81 56 108 81 42 40 48 51 45 80 -5 52 -52 79 -142 79 l-71 0 -21 48
c-14 30 -23 78 -27 134 l-6 86 48 45 c49 46 115 74 149 62 9 -3 39 -25 65 -50
51 -48 79 -55 109 -28 29 26 21 52 -34 108 -29 28 -68 81 -86 117 l-33 65 33
51 c18 28 42 66 53 84 13 20 43 44 83 65 55 28 74 33 135 33 49 0 85 -7 113
-19z m433 -1480 l23 -6 -20 -25 -20 -24 -600 -2 c-507 -2 -608 -4 -649 -17
-103 -33 -203 -25 -211 15 -7 38 34 42 533 45 264 1 500 3 525 4 25 0 81 0
125 -2 44 -1 109 2 145 8 76 12 116 13 149 4z m430 -49 c44 -23 236 -124 314
-166 31 -17 76 -46 100 -64 23 -18 76 -54 118 -80 42 -26 121 -81 175 -122 53
-41 127 -95 163 -119 36 -24 68 -46 71 -50 3 -3 21 -18 40 -32 19 -15 46 -37
60 -49 14 -12 55 -39 91 -60 36 -22 116 -75 177 -119 61 -44 124 -87 139 -95
16 -8 53 -36 85 -64 31 -27 76 -58 100 -69 74 -35 111 -51 166 -72 29 -12 74
-32 101 -45 47 -24 52 -25 193 -17 79 4 149 11 155 14 6 4 37 9 69 12 36 4 71
15 90 28 127 88 157 112 195 155 50 56 145 108 180 97 36 -12 63 -88 56 -159
-9 -86 -25 -135 -53 -160 -13 -11 -34 -30 -46 -41 l-23 -20 54 -3 c32 -2 66 3
85 11 21 11 90 17 221 23 217 9 223 8 285 -16 39 -15 65 -17 174 -13 127 6
128 6 194 -25 37 -17 93 -42 124 -56 155 -67 324 -248 398 -426 13 -30 33 -68
45 -85 41 -56 59 -100 92 -225 18 -69 40 -150 48 -180 18 -70 18 -138 0 -220
-19 -82 -46 -272 -40 -278 12 -12 36 26 56 91 20 65 22 93 23 282 0 175 -2
215 -16 240 -9 17 -21 55 -26 85 -6 30 -18 75 -26 99 -20 56 -21 107 -1 115
19 7 69 -46 89 -93 30 -74 65 -210 80 -315 9 -61 21 -113 28 -118 8 -5 20 0
32 15 16 19 17 33 11 109 -7 92 3 115 24 56 21 -58 53 -308 61 -468 5 -112 13
-168 26 -203 22 -57 15 -75 -40 -94 -30 -10 -48 -10 -83 -2 -62 16 -70 6 -55
-74 16 -88 15 -231 -2 -265 -7 -15 -19 -52 -26 -82 -6 -30 -16 -72 -21 -92 -5
-20 -9 -128 -9 -240 0 -170 3 -212 18 -262 20 -61 18 -104 -4 -113 -37 -14
-223 168 -273 267 -18 36 -46 83 -63 104 -27 33 -29 41 -17 50 50 37 139 110
139 112 0 2 -16 22 -36 44 -54 60 -87 53 -128 -27 -39 -77 -135 -123 -237
-114 -20 1 -27 17 -44 96 -11 54 -11 64 5 95 10 19 30 46 44 59 14 14 26 35
26 48 0 34 -24 77 -53 92 -33 17 -90 -1 -115 -36 -31 -45 -74 -93 -83 -93 -5
0 -46 30 -92 67 -77 64 -166 166 -187 215 -5 13 -25 65 -45 117 l-37 93 27 65
c39 91 49 93 131 32 38 -27 92 -61 121 -75 51 -25 52 -25 168 -14 64 6 123 9
132 6 23 -9 52 11 143 100 58 56 104 114 143 178 52 86 59 103 67 173 5 43 16
96 24 118 17 45 12 143 -10 209 -8 21 -14 48 -14 61 0 31 -105 238 -154 305
-23 30 -54 75 -71 100 -53 80 -146 190 -161 190 -21 0 -17 -23 11 -61 74 -102
166 -241 193 -293 30 -55 31 -59 17 -87 -9 -16 -20 -29 -25 -29 -5 0 -33 23
-62 51 -29 28 -66 57 -83 66 -16 9 -48 30 -70 47 -62 49 -88 63 -154 86 -53
17 -85 20 -258 20 -170 -1 -215 -4 -313 -25 -63 -13 -162 -33 -220 -45 -115
-23 -189 -44 -295 -86 -45 -17 -102 -29 -160 -34 -256 -23 -337 -32 -405 -49
-126 -32 -185 -34 -271 -12 -58 16 -94 19 -155 15 -66 -5 -93 -1 -167 20 -48
14 -102 26 -121 26 -18 0 -54 9 -79 20 -41 18 -138 49 -272 85 -73 20 -264 89
-305 110 -58 30 -222 135 -275 177 -27 22 -92 80 -143 129 -51 49 -117 105
-145 124 -29 19 -81 69 -117 112 -36 42 -73 85 -82 95 -10 9 -29 36 -44 59
-14 24 -45 63 -69 88 -23 25 -56 68 -74 94 -59 87 -399 424 -486 483 -44 29
-107 74 -140 101 -55 43 -66 48 -124 51 -60 4 -66 3 -120 -35 -63 -45 -129
-69 -211 -78 -30 -4 -77 -15 -105 -25 -124 -46 -254 -80 -302 -80 -29 0 -119
-13 -200 -30 -82 -16 -175 -32 -208 -35 -90 -10 -158 24 -83 40 48 11 134 81
165 135 16 26 48 69 72 95 40 44 45 46 67 34 34 -18 30 -32 -20 -85 -51 -53
-64 -84 -35 -84 19 0 68 45 157 142 27 30 57 52 80 58 65 19 251 27 462 21
252 -7 345 -6 436 4 80 8 95 4 224 -75 126 -77 178 -115 238 -172 31 -29 88
-80 127 -112 38 -32 83 -77 101 -100 17 -23 51 -58 75 -78 24 -20 78 -69 119
-110 41 -40 93 -82 115 -92 22 -10 55 -25 73 -33 24 -11 48 -14 92 -9 89 10
217 9 238 -3 11 -6 39 -26 63 -46 24 -20 52 -43 62 -51 23 -19 22 -49 -4 -75
-17 -17 -28 -20 -58 -15 -74 14 -173 24 -192 19 -27 -8 -24 -38 11 -88 24 -34
42 -48 81 -62 62 -22 119 -82 168 -177 19 -37 50 -84 68 -106 34 -40 140 -100
176 -100 11 0 44 -8 73 -17 55 -17 72 -15 221 23 17 5 25 -1 37 -24 9 -17 16
-45 16 -62 0 -36 12 -42 60 -31 53 11 163 -23 307 -97 28 -14 39 -14 82 -3 28
7 56 9 63 4 7 -4 36 -9 63 -9 28 -1 86 -7 130 -13 141 -18 409 -10 432 13 4 3
1 12 -6 19 -9 9 -70 12 -219 14 l-207 1 -130 45 c-170 59 -192 67 -243 89 -24
11 -69 28 -100 39 -65 24 -87 45 -103 99 -15 50 -47 88 -81 96 -25 5 -28 3
-28 -19 0 -38 -19 -48 -66 -36 -21 6 -43 15 -48 20 -19 17 -63 10 -69 -11 -7
-28 -72 -53 -118 -47 -21 3 -57 19 -81 36 -24 17 -67 48 -95 68 -29 20 -53 39
-53 43 0 9 77 29 105 28 11 -1 35 -10 54 -20 38 -22 52 -18 24 7 -52 47 -128
93 -163 99 -32 5 -40 11 -40 27 0 25 55 79 81 79 10 0 40 -20 67 -44 62 -54
176 -136 191 -136 6 0 34 -18 63 -40 29 -22 60 -40 68 -40 9 0 26 -7 38 -16
20 -14 23 -14 29 2 8 21 -11 37 -131 108 -106 63 -239 161 -272 199 -19 22
-24 40 -24 80 0 61 -3 66 -55 97 -22 13 -71 49 -109 79 l-69 56 -146 5 c-143
5 -147 6 -188 35 -122 88 -209 158 -303 245 -58 53 -136 118 -174 144 -62 44
-199 175 -219 211 -6 12 0 14 41 11 52 -5 99 -28 175 -88 27 -21 53 -38 58
-38 5 0 51 -37 102 -82 118 -106 184 -157 327 -249 206 -135 193 -103 -25 61
-71 53 -157 115 -190 137 -33 23 -71 53 -85 68 -14 15 -50 46 -80 68 -30 23
-77 63 -105 90 -27 27 -60 53 -72 58 -37 14 -27 26 29 33 51 7 52 7 97 -38 28
-27 62 -49 86 -55 22 -6 63 -26 92 -46 29 -19 57 -35 63 -35 5 0 10 -4 10 -8
0 -8 53 -42 65 -42 8 0 -41 40 -135 109 -66 49 -150 96 -150 85 0 -3 -7 1 -15
10 -8 8 -15 19 -15 25 0 6 -6 11 -12 11 -7 0 0 12 16 26 34 30 72 29 135 -4z
m-1051 -257 c42 -35 99 -123 112 -172 20 -80 -6 -98 -276 -182 -88 -27 -188
-54 -224 -60 -36 -6 -126 -20 -200 -31 -181 -27 -254 -40 -322 -57 -32 -7 -99
-18 -150 -23 -51 -5 -118 -16 -148 -25 -35 -10 -95 -15 -164 -15 -67 0 -137
-7 -185 -18 -95 -21 -166 -21 -210 2 -41 22 -36 28 64 83 66 36 75 38 165 39
52 1 133 9 180 19 50 10 143 18 225 19 112 2 151 7 197 24 32 11 108 28 170
37 62 8 153 26 203 40 49 14 97 22 107 19 33 -10 40 6 18 43 -11 20 -20 37
-18 38 38 28 87 55 101 55 20 0 20 4 2 -92 -10 -49 3 -49 87 -4 35 19 88 42
118 51 30 10 60 22 66 27 15 11 7 47 -16 73 -21 24 -40 60 -40 74 0 14 71 61
92 61 9 0 30 -11 46 -25z m339 -197 c62 -67 137 -199 166 -293 16 -53 49 -135
98 -248 16 -37 29 -78 29 -91 0 -13 12 -41 26 -62 15 -21 47 -81 71 -133 35
-76 41 -97 31 -109 -7 -8 -72 -43 -144 -79 -86 -42 -156 -84 -200 -122 -38
-31 -91 -72 -119 -91 -95 -64 -242 -185 -384 -315 -73 -67 -135 -116 -168
-134 -13 -6 -28 -29 -34 -52 -21 -68 -100 -119 -249 -159 -47 -12 -109 -31
-138 -41 -63 -22 -82 -17 -133 38 -34 35 -109 152 -109 168 0 4 -10 21 -22 38
-25 34 -31 45 -141 259 -41 82 -96 176 -121 210 -25 35 -62 95 -82 133 -48 92
-109 177 -221 308 -51 60 -104 129 -119 155 -30 51 -35 99 -13 113 8 5 66 9
129 9 173 1 306 16 395 44 44 14 103 26 130 26 28 0 83 9 123 20 39 11 99 20
133 20 41 0 85 9 131 25 38 14 102 30 141 35 80 12 131 23 224 51 33 10 90 23
125 29 94 16 149 32 188 54 19 11 75 28 125 36 104 18 109 26 79 109 -29 81
-2 106 53 49z m348 -453 c38 -30 120 -148 131 -189 3 -15 31 -67 60 -116 57
-94 61 -109 42 -128 -19 -19 -41 -14 -79 17 -40 34 -87 139 -121 275 -11 45
-24 83 -27 86 -11 8 -51 80 -45 80 3 0 20 -11 39 -25z m-5143 -61 c46 -19 72
-24 100 -20 26 4 59 -1 112 -19 73 -24 196 -84 226 -110 8 -7 38 -24 65 -38
28 -14 93 -66 145 -114 52 -49 120 -108 150 -130 77 -57 116 -95 208 -199 45
-50 115 -120 157 -155 44 -37 78 -74 82 -89 24 -102 111 -230 156 -230 28 0
115 76 137 121 33 63 27 87 -36 146 -31 30 -76 62 -99 73 -48 22 -66 53 -85
145 -24 116 10 222 106 331 107 122 257 200 395 206 68 3 74 1 77 -18 2 -12
-17 -49 -44 -89 -44 -65 -48 -74 -56 -159 -4 -50 -6 -104 -2 -121 31 -161 167
-318 358 -415 l108 -54 136 2 c269 4 292 8 427 73 74 36 142 77 178 109 32 27
67 50 77 50 26 0 70 -56 70 -90 0 -20 -9 -35 -29 -49 -48 -34 -196 -100 -346
-153 -201 -71 -241 -84 -328 -103 -82 -18 -99 -17 -199 22 l-47 18 -31 -30
c-55 -53 -22 -95 76 -95 28 0 65 -5 81 -11 32 -11 79 -1 203 41 30 10 90 26
134 35 44 10 112 34 154 56 42 21 80 39 85 39 13 0 36 -32 37 -51 1 -62 -285
-190 -456 -204 -43 -4 -122 -15 -174 -26 -62 -13 -125 -19 -187 -18 -51 1 -96
-1 -100 -5 -5 -4 5 -19 21 -33 30 -25 31 -25 155 -18 70 4 141 13 160 21 41
17 91 18 125 3 l25 -12 -46 -29 c-70 -45 -187 -84 -427 -144 -65 -17 -169 -7
-256 23 -60 21 -100 12 -100 -22 0 -31 31 -52 90 -61 25 -3 67 -12 94 -20 81
-23 168 -14 334 33 30 8 56 13 58 10 6 -6 -72 -35 -116 -43 -19 -4 -68 -20
-107 -36 -40 -16 -117 -38 -170 -49 -110 -24 -218 -21 -313 7 -188 55 -276 28
-114 -35 76 -30 103 -35 223 -42 75 -5 152 -13 171 -19 53 -15 216 -12 295 6
39 9 108 32 155 50 47 18 99 36 115 40 50 12 116 48 264 149 116 79 174 129
319 271 182 178 221 206 262 184 27 -14 25 -37 -8 -81 -30 -41 -169 -165 -247
-221 -27 -20 -86 -73 -130 -118 -112 -114 -312 -255 -463 -325 -83 -39 -276
-101 -406 -130 -109 -24 -125 -25 -188 -15 -73 13 -94 7 -83 -23 17 -44 128
-60 223 -32 28 9 85 17 127 20 104 5 211 45 325 120 318 209 336 223 456 343
90 90 124 111 124 73 0 -10 3 -33 6 -50 6 -29 1 -36 -77 -108 -46 -43 -120
-113 -164 -156 -65 -64 -100 -89 -190 -134 -60 -31 -137 -64 -170 -73 -33 -10
-96 -34 -140 -54 -44 -20 -90 -36 -102 -36 -28 0 -41 -37 -20 -58 14 -13 22
-13 79 8 35 13 83 32 108 43 28 13 69 21 110 23 36 1 71 2 78 3 8 0 45 31 82
69 143 141 263 247 279 247 13 0 16 -11 16 -55 0 -51 -2 -56 -35 -78 -19 -13
-40 -33 -47 -45 -21 -41 -127 -144 -171 -166 -45 -23 -54 -52 -20 -59 23 -4
93 52 118 95 22 38 38 41 70 15 33 -26 20 -67 -37 -117 -150 -133 -162 -148
-182 -233 -23 -95 -31 -112 -72 -146 -69 -58 -161 -87 -216 -69 -41 14 -49 11
-312 -164 -43 -29 -109 -68 -147 -87 -48 -25 -86 -55 -126 -99 -48 -55 -73
-72 -170 -119 -62 -31 -136 -61 -165 -68 -87 -20 -481 -246 -585 -337 -37 -32
-97 -83 -132 -113 -36 -30 -65 -58 -65 -63 -2 -17 81 37 165 107 49 42 134
107 190 145 87 60 147 91 370 192 22 11 49 19 60 19 11 0 47 11 80 24 169 67
214 97 305 203 56 65 68 74 139 107 19 8 51 26 71 38 110 69 178 107 205 114
16 4 34 13 39 20 14 18 57 26 75 14 13 -9 12 -12 -4 -25 -11 -8 -30 -15 -43
-15 -18 0 -23 -6 -23 -25 0 -19 -8 -29 -28 -38 -15 -7 -72 -48 -126 -92 -53
-44 -124 -98 -156 -121 -32 -23 -99 -77 -148 -121 -80 -71 -101 -84 -183 -113
-67 -24 -105 -44 -137 -74 -42 -38 -49 -41 -106 -42 -71 -1 -155 -24 -208 -56
-74 -47 -169 -176 -182 -249 -8 -44 -59 -115 -98 -135 -28 -15 -31 -14 -54 7
-32 30 -30 57 7 102 52 64 11 41 -68 -38 -50 -50 -97 -86 -142 -108 -59 -30
-72 -43 -126 -120 -70 -99 -104 -138 -159 -178 -81 -60 -107 -20 -48 73 73
116 96 167 137 298 71 231 105 300 149 300 28 0 171 73 230 118 66 51 138 94
222 136 119 59 130 85 75 175 l-40 64 22 17 c31 24 81 46 163 70 87 26 117 27
214 12 127 -21 115 -25 114 41 -1 50 1 57 18 57 10 0 49 16 87 35 38 19 91 39
117 45 75 18 121 39 225 107 53 34 117 72 142 84 43 21 51 22 97 10 48 -12 52
-12 98 15 57 33 122 98 122 123 0 30 -115 121 -154 121 -11 0 -52 -16 -90 -35
-39 -19 -129 -59 -201 -89 -266 -111 -357 -122 -535 -64 -71 23 -201 90 -221
114 -19 23 -64 44 -76 36 -7 -4 -26 -34 -45 -66 -47 -83 -85 -110 -193 -137
-49 -12 -110 -29 -135 -39 -39 -14 -46 -21 -51 -52 -3 -20 -3 -56 1 -80 6 -45
-5 -88 -25 -88 -21 0 -101 66 -197 163 -45 45 -61 70 -74 114 -17 58 -16 70
10 196 20 96 50 156 116 230 62 68 84 81 170 97 95 17 110 25 110 57 0 16 -7
37 -15 47 -8 11 -15 30 -15 42 0 35 -36 70 -105 104 -70 34 -165 127 -165 161
0 11 -8 32 -19 47 -10 15 -39 59 -64 97 -64 98 -183 227 -259 282 -22 15 -60
43 -85 62 -25 18 -58 37 -73 43 -33 11 -97 -3 -148 -33 -46 -26 -66 -24 -107
12 -55 49 -67 78 -48 117 18 37 45 57 121 92 44 20 58 22 82 13 l29 -11 -23
37 c-25 40 -107 89 -196 117 -30 9 -77 28 -105 42 l-49 24 -56 -30 c-30 -17
-82 -38 -115 -48 -33 -9 -67 -21 -75 -25 -8 -5 -35 -17 -60 -28 -25 -10 -76
-42 -115 -70 -60 -45 -74 -52 -110 -49 -22 2 -40 8 -40 13 0 9 100 105 170
163 50 42 112 72 216 107 95 32 113 35 222 35 82 0 129 -4 150 -14 18 -8 61
-26 97 -41 36 -14 73 -30 82 -35 10 -5 38 -14 63 -20 54 -12 99 -39 180 -108
33 -28 88 -68 122 -88 66 -38 137 -99 291 -248 85 -82 94 -88 109 -74 21 22
11 55 -30 98 -68 72 -205 198 -280 259 -43 35 -88 77 -100 93 -39 54 -213 161
-302 187 -78 22 -94 29 -184 77 -36 20 -59 24 -128 24 -75 0 -96 -5 -219 -50
-75 -27 -146 -50 -158 -50 -27 0 -74 46 -60 59 16 15 87 49 219 107 l130 57
155 4 155 5 80 -32 c188 -76 212 -31 30 56 l-80 39 -158 3 c-175 4 -175 4
-371 -74 -69 -28 -146 -69 -213 -114 -151 -102 -160 -109 -203 -166 -59 -78
-170 -319 -170 -370 0 -10 -7 -49 -15 -87 -8 -37 -15 -120 -16 -186 l-3 -118
44 -92 c24 -50 50 -97 58 -103 8 -7 32 -39 55 -73 60 -90 130 -149 237 -202
90 -44 101 -47 192 -51 122 -5 139 3 157 80 9 43 21 63 54 94 98 93 211 146
301 142 l61 -3 8 -70 c13 -117 24 -176 52 -270 15 -53 27 -119 28 -160 2 -67
0 -74 -42 -143 -24 -40 -57 -84 -74 -98 -27 -23 -36 -25 -81 -19 -28 4 -59 9
-69 11 -11 4 -28 -5 -45 -24 -71 -76 -68 -117 14 -163 52 -30 179 -137 289
-245 97 -96 213 -380 222 -544 9 -152 -54 -521 -108 -646 -85 -193 -259 -401
-437 -522 -162 -109 -303 -171 -360 -158 -15 4 -72 10 -126 15 -93 9 -108 13
-211 65 -107 53 -167 98 -210 159 -26 37 -61 42 -57 9 5 -35 58 -141 84 -169
13 -14 51 -47 84 -74 61 -48 63 -49 134 -49 68 0 110 -11 110 -29 0 -22 -98
-50 -185 -52 -85 -3 -94 -1 -150 29 -33 18 -82 50 -110 72 -27 22 -60 45 -72
51 -13 7 -23 18 -23 25 0 19 -59 84 -76 84 -15 0 -19 -37 -5 -58 4 -8 19 -19
31 -25 34 -17 36 -35 5 -47 -23 -9 -33 -6 -62 16 -57 43 -112 121 -129 182 -8
32 -22 74 -31 94 -15 36 -15 39 10 80 14 24 34 68 45 98 11 30 27 75 37 100
23 63 13 124 -37 206 l-41 68 27 23 c62 53 157 21 275 -96 108 -106 103 -96
181 -349 21 -66 29 -79 86 -130 35 -31 80 -63 101 -71 21 -7 91 -16 156 -18
101 -5 127 -2 190 16 39 12 104 31 142 43 123 36 193 78 275 165 41 43 95 112
120 151 25 40 64 102 88 139 30 47 39 69 31 74 -19 11 -55 -18 -83 -66 -14
-24 -45 -60 -68 -79 -42 -37 -42 -37 -51 -14 -5 13 -13 93 -18 178 -10 177
-21 258 -42 315 -8 22 -17 56 -21 75 -4 19 -22 60 -41 90 -19 30 -46 77 -59
104 -33 65 -118 167 -173 207 -25 17 -51 46 -58 63 -18 43 -50 70 -85 72 -17
1 -30 -1 -30 -5 0 -12 119 -171 180 -241 66 -76 108 -143 137 -220 68 -179
103 -480 73 -630 -24 -122 -52 -189 -95 -224 -75 -61 -134 -96 -159 -96 -24 0
-26 3 -26 46 0 29 10 67 29 107 70 146 78 265 30 457 -32 129 -55 186 -85 211
-9 8 -46 50 -82 94 -35 44 -81 94 -101 111 -35 29 -140 84 -191 99 -14 4 -47
19 -75 33 -74 37 -102 43 -116 26 -10 -12 -7 -26 16 -71 43 -85 44 -130 5
-198 -70 -121 -140 -175 -230 -175 -46 0 -66 6 -120 38 -36 20 -66 44 -67 52
-2 8 15 28 37 43 49 35 66 66 74 137 6 46 2 69 -24 144 -17 49 -43 104 -58
122 -50 61 -70 89 -97 138 l-26 47 39 43 c22 24 47 55 57 69 17 26 17 27 -24
73 -23 26 -41 52 -41 58 0 6 -14 29 -30 50 -17 22 -30 44 -30 49 0 6 -11 25
-25 43 -14 18 -25 36 -25 39 0 4 -13 36 -30 71 -16 35 -40 103 -53 152 -21 77
-24 98 -16 158 5 38 13 137 18 221 5 83 11 155 14 160 3 5 10 53 16 107 7 57
26 144 47 209 52 164 61 187 96 247 28 48 33 52 36 31 2 -13 -1 -43 -7 -67 -6
-23 -11 -56 -11 -73 0 -16 -7 -55 -15 -87 -23 -90 -31 -328 -12 -394 8 -30 18
-93 22 -140 4 -47 11 -107 17 -135 10 -46 79 -173 161 -295 55 -81 194 -230
235 -251 15 -8 42 -24 61 -36 37 -25 49 -27 71 -13 24 15 -5 53 -97 125 -83
65 -136 133 -203 257 -14 26 -40 74 -57 107 -31 57 -60 145 -90 276 -7 33 -18
134 -24 225 -9 152 -8 169 10 220 10 30 31 107 46 170 15 63 30 126 35 140 5
14 11 37 14 53 5 20 12 27 31 27 34 0 38 -25 25 -137 -9 -74 -9 -116 0 -178
17 -114 28 -145 51 -145 29 0 32 21 13 86 -13 47 -16 82 -11 175 10 207 81
403 191 532 25 29 57 78 70 108 44 97 118 173 246 251 188 116 236 136 500
213 25 7 96 14 158 14 100 1 120 -2 174 -25z m5655 -482 c89 -40 238 -150 249
-184 13 -42 -35 -49 -127 -17 -80 28 -85 27 -206 -11 -88 -27 -118 -43 -211
-110 -172 -125 -258 -206 -356 -333 -141 -183 -178 -236 -207 -298 -15 -32
-51 -97 -78 -144 -28 -47 -51 -88 -51 -91 0 -2 -22 -53 -49 -112 -27 -59 -54
-134 -60 -166 -6 -34 -22 -73 -36 -92 -14 -18 -25 -46 -25 -63 0 -46 -47 -223
-62 -232 -7 -5 -36 -11 -64 -15 -55 -6 -112 12 -176 57 -29 21 -35 21 -102 11
-39 -5 -94 -8 -121 -5 -67 7 -92 -13 -105 -87 -6 -30 -21 -77 -35 -103 -14
-27 -25 -62 -25 -77 0 -28 -25 -81 -62 -129 -30 -39 -100 -113 -103 -109 -2 2
4 28 14 58 21 63 51 110 104 165 34 35 43 58 49 129 2 21 -2 29 -14 31 -13 2
-23 -13 -40 -57 -14 -36 -54 -98 -100 -157 -70 -89 -85 -102 -157 -140 -43
-22 -92 -41 -109 -41 -38 0 -166 83 -214 139 -22 26 -45 69 -59 113 -19 61
-21 75 -10 102 7 17 18 51 25 76 12 43 31 83 59 123 10 16 7 22 -21 47 -63 53
-130 82 -201 88 -82 6 -95 14 -77 51 7 14 23 64 36 111 31 119 104 296 154
377 23 37 57 95 74 128 18 33 57 92 87 130 80 101 92 115 104 115 15 0 51 -37
51 -53 0 -7 -22 -40 -50 -72 -27 -33 -58 -76 -69 -95 -10 -20 -38 -58 -60 -85
-23 -27 -41 -57 -41 -67 0 -18 -51 -151 -81 -210 -11 -21 -19 -53 -19 -72 0
-19 -7 -62 -16 -96 -8 -34 -13 -68 -10 -76 16 -42 91 61 123 166 8 30 26 71
39 90 13 19 24 44 24 56 0 12 7 27 15 34 8 7 22 37 31 66 8 30 20 56 25 59 5
4 34 44 64 90 30 45 62 85 70 89 25 9 59 -13 87 -59 14 -24 46 -58 70 -75 42
-32 44 -32 126 -26 53 4 97 13 122 26 22 11 45 20 52 20 22 0 209 96 263 134
27 20 127 111 222 203 288 282 385 371 468 433 84 63 104 70 125 45 11 -13 8
-21 -15 -45 -26 -27 -27 -30 -9 -30 12 0 33 14 47 30 15 17 31 30 36 30 5 0
33 16 62 35 30 19 59 35 66 35 21 0 24 19 8 50 -20 38 -10 53 43 71 20 7 64
25 97 41 58 28 64 29 160 23 86 -5 111 -11 182 -43z m-6019 -249 c29 -22 31
-33 15 -125 -13 -76 4 -114 84 -190 68 -64 94 -74 149 -59 95 27 153 7 259
-86 90 -78 135 -135 263 -338 45 -71 110 -160 143 -198 l61 -68 -60 -64 c-81
-86 -111 -131 -168 -255 l-49 -105 0 -146 0 -146 42 -55 c55 -74 143 -156 201
-190 61 -36 140 -61 169 -53 39 9 80 77 94 155 7 39 14 70 17 70 3 0 32 -10
65 -22 52 -19 66 -20 116 -11 143 27 211 62 211 106 0 27 28 57 54 57 12 0 34
-7 51 -16 16 -8 63 -24 104 -35 41 -11 82 -24 93 -30 10 -5 52 -9 93 -7 60 1
79 -2 92 -15 16 -16 16 -17 0 -17 -10 0 -35 -9 -55 -19 -21 -11 -56 -23 -77
-27 -38 -7 -155 -86 -155 -105 0 -22 -89 -53 -175 -60 -109 -9 -187 -37 -245
-86 -68 -59 -100 -109 -100 -159 0 -39 -4 -46 -62 -99 -79 -70 -326 -237 -346
-233 -23 5 -29 24 -47 163 -23 172 -51 249 -141 390 -81 127 -294 368 -339
383 -23 8 -25 10 -9 11 37 2 108 58 156 124 50 67 68 104 68 140 0 12 12 45
25 72 34 68 31 105 -10 190 -21 41 -44 111 -55 163 -10 50 -21 96 -25 101 -3
6 2 22 11 36 21 32 12 69 -21 91 -30 20 -205 64 -252 64 -38 0 -87 -23 -188
-88 -152 -98 -208 -105 -340 -42 -68 32 -105 60 -192 142 -59 56 -116 115
-126 130 -23 34 -71 242 -63 273 7 27 114 124 166 150 19 10 54 31 77 46 23
16 50 29 60 29 10 0 63 21 118 45 88 40 107 45 158 42 38 -2 66 -10 85 -24z
m6408 -54 c80 -76 101 -129 108 -271 l6 -117 -27 -19 c-42 -29 -59 -32 -82
-16 -33 24 -44 84 -27 151 8 32 18 95 22 139 8 92 -3 122 -59 162 -23 16 -27
22 -14 22 10 0 43 -23 73 -51z m3186 -55 c74 -26 118 -61 118 -93 0 -10 10
-31 22 -46 20 -25 25 -27 71 -21 66 9 108 -6 147 -55 27 -35 34 -55 47 -137
27 -182 27 -192 -2 -293 -15 -52 -34 -107 -43 -124 -8 -16 -22 -57 -31 -90
l-17 -60 -87 -42 c-109 -53 -166 -64 -238 -46 -75 19 -169 68 -224 118 -54 49
-72 49 -109 1 -40 -53 -61 -97 -85 -174 l-22 -73 25 -94 c35 -131 93 -249 155
-313 57 -60 55 -56 41 -83 -15 -27 -36 -24 -80 11 -21 17 -53 37 -72 44 -45
19 -120 100 -153 166 -24 47 -144 213 -215 296 -36 42 -137 126 -190 158 -25
14 -65 42 -90 61 -25 19 -66 46 -91 60 -30 17 -55 42 -69 68 -27 47 -91 150
-156 247 -24 36 -82 106 -129 155 l-87 90 -119 3 c-78 3 -119 0 -119 -7 0 -6
33 -35 74 -65 41 -30 109 -87 151 -125 81 -73 244 -271 274 -331 30 -59 86
-154 128 -216 22 -32 43 -75 47 -95 6 -32 40 -79 50 -68 2 2 11 27 20 56 28
84 38 84 78 1 22 -46 37 -95 41 -131 6 -57 31 -117 53 -124 12 -4 11 85 -1
135 -3 12 -1 22 6 22 6 0 19 -10 29 -22 11 -13 44 -53 75 -91 31 -37 83 -85
115 -107 42 -29 60 -48 65 -69 3 -17 15 -41 25 -53 10 -13 31 -51 48 -85 16
-34 39 -75 51 -92 13 -17 35 -66 50 -109 15 -42 45 -104 67 -137 22 -33 46
-73 54 -90 8 -16 23 -43 34 -59 34 -51 235 -458 241 -490 4 -17 19 -71 35
-121 15 -49 31 -117 35 -150 4 -33 16 -93 26 -134 10 -41 19 -89 19 -107 0
-37 31 -81 49 -70 13 9 8 71 -16 185 -12 62 -13 81 -2 113 7 21 16 38 21 38
18 0 93 -204 143 -394 13 -49 37 -116 54 -150 66 -136 91 -201 101 -264 6 -36
20 -91 30 -123 11 -32 20 -78 20 -102 0 -28 6 -49 15 -57 11 -10 12 -16 4 -26
-8 -10 -5 -38 12 -111 20 -86 23 -131 27 -378 3 -231 1 -297 -13 -375 -10 -52
-20 -140 -24 -195 -6 -77 -13 -112 -34 -155 -14 -30 -33 -91 -42 -134 -15 -74
-82 -221 -148 -326 -31 -51 -206 -224 -246 -245 -28 -14 -36 -15 -46 -3 -26
27 -26 54 2 94 14 21 40 66 58 99 17 33 47 85 66 115 103 161 164 320 184 485
7 61 25 173 39 250 22 115 27 169 28 315 0 100 -4 195 -11 223 -8 33 -8 60 -1
92 11 49 0 147 -19 184 -6 11 -11 41 -11 68 0 63 -36 212 -57 235 -24 27 -43
22 -43 -10 0 -15 14 -71 31 -122 l30 -95 6 -351 5 -351 -30 -154 c-16 -85 -35
-184 -42 -221 -21 -115 -106 -362 -139 -404 -15 -19 -20 -36 -16 -54 4 -18 2
-27 -7 -28 -7 0 -22 -2 -33 -4 -19 -3 -20 2 -17 62 4 80 23 142 64 206 53 84
94 276 123 579 l4 40 -14 -45 c-13 -39 -14 -41 -10 -10 3 19 7 80 9 135 l4
100 -8 -90 c-5 -49 -14 -110 -20 -135 -6 -25 -19 -94 -30 -155 -10 -60 -23
-126 -29 -145 -6 -19 -16 -62 -22 -95 -16 -94 -66 -184 -101 -185 -13 0 -9 49
12 131 11 43 22 91 25 106 2 16 15 84 28 153 14 69 30 161 36 205 6 44 16 107
22 140 16 88 3 401 -20 485 l-18 65 -5 -40 c-3 -22 -1 -120 4 -217 10 -164 9
-187 -11 -296 -11 -65 -21 -133 -21 -151 0 -52 -64 -301 -78 -301 -4 1 -19 17
-34 37 -39 50 -45 95 -24 173 29 103 55 254 46 264 -5 4 -17 -12 -28 -37 -22
-48 -62 -83 -87 -73 -15 6 -29 34 -60 121 -28 82 -29 101 -6 138 31 51 61 189
67 317 6 106 4 125 -26 250 -18 74 -36 159 -41 188 -5 28 -20 76 -33 105 -13
28 -29 72 -36 97 -7 25 -21 63 -33 84 -29 57 -36 209 -12 273 l18 47 -52 48
c-68 62 -92 63 -120 5 -27 -56 -26 -94 4 -192 28 -88 27 -126 -6 -203 -11 -24
-19 -51 -19 -60 0 -9 -4 -23 -9 -31 -7 -11 -14 -9 -33 14 -21 24 -34 28 -100
35 -51 5 -88 15 -112 29 -89 55 -189 223 -206 347 -15 107 1 257 35 330 67
143 84 314 45 443 -11 36 -27 92 -36 124 -10 32 -31 82 -48 110 -17 29 -39 72
-50 97 -43 107 -45 110 -68 110 -12 0 -37 -5 -55 -12 -29 -11 -36 -10 -53 8
-31 30 -51 117 -59 249 -6 97 -13 132 -35 185 -15 36 -31 87 -37 114 -6 35
-26 73 -68 130 -32 45 -64 92 -71 106 -7 14 -26 40 -41 58 -16 18 -29 38 -29
44 0 14 -102 131 -155 177 -22 20 -64 62 -94 93 -30 32 -60 58 -68 58 -7 0
-32 -18 -54 -40 -25 -24 -51 -40 -65 -40 -27 0 -90 58 -129 119 -33 53 -35
146 -4 215 11 26 18 54 15 62 -9 24 -85 17 -131 -11 -48 -29 -89 -31 -130 -7
-16 10 -46 24 -65 32 -19 7 -64 27 -100 43 -36 16 -89 40 -118 53 -73 32 -64
48 27 52 64 3 79 -1 144 -32 126 -61 356 -87 457 -51 39 14 48 14 105 -3 71
-22 160 -15 249 19 41 15 87 20 226 25 110 3 190 11 215 19 22 8 69 17 105 20
82 7 162 23 206 41 57 24 172 44 304 54 69 5 157 18 195 29 52 14 105 19 207
20 123 1 144 -2 210 -25z m-3765 -290 c29 -19 51 -40 48 -45 -4 -5 -25 -19
-47 -30 -46 -24 -69 -18 -128 31 l-35 28 24 26 c34 36 73 33 138 -10z m1204
22 c24 -7 64 -22 89 -33 25 -11 63 -25 85 -32 55 -15 104 -47 114 -74 12 -32
5 -37 -31 -25 -35 12 -131 69 -136 80 -2 4 -38 21 -80 39 -124 51 -148 78 -41
45z m-133 -114 c146 -135 266 -241 307 -272 194 -147 264 -197 297 -211 15 -6
28 -15 28 -20 0 -5 5 -9 11 -9 7 0 31 -15 53 -34 23 -19 64 -45 91 -59 77 -38
169 -90 175 -98 6 -8 49 -34 140 -84 60 -33 108 -72 153 -123 28 -31 8 -62
-41 -62 -21 0 -42 4 -47 9 -6 4 -35 22 -65 38 -165 89 -219 120 -261 150 -25
18 -54 36 -65 40 -31 13 -352 231 -392 267 -20 18 -89 72 -152 120 -63 48
-171 142 -239 209 -184 182 -195 198 -148 217 39 16 69 1 155 -78z m187 8 c45
-21 86 -44 92 -52 7 -8 39 -27 72 -42 56 -27 65 -37 132 -138 55 -83 85 -118
128 -148 66 -47 99 -50 156 -15 64 40 91 32 126 -37 8 -15 46 -61 84 -104 122
-134 161 -203 123 -217 -18 -6 -75 18 -114 48 -18 14 -35 25 -38 25 -4 0 -77
44 -164 99 -86 54 -168 104 -182 111 -14 7 -63 45 -110 84 -47 40 -113 93
-148 119 -35 27 -77 64 -94 83 -17 19 -58 56 -90 81 -40 30 -66 60 -82 93 -13
27 -21 52 -18 55 8 8 36 -2 127 -45z m-995 -36 c15 -36 65 -107 139 -198 64
-77 130 -159 146 -181 16 -22 75 -94 131 -160 55 -66 129 -158 163 -205 77
-105 161 -206 267 -320 45 -48 96 -116 115 -150 18 -34 49 -76 69 -93 32 -28
185 -212 275 -332 16 -22 36 -46 45 -55 8 -8 32 -40 52 -70 l38 -55 -12 -145
c-20 -242 -11 -462 26 -628 14 -62 30 -152 36 -200 6 -48 17 -109 25 -136 8
-27 15 -65 15 -84 0 -18 11 -81 24 -140 14 -59 28 -134 31 -167 4 -33 11 -77
16 -97 18 -72 59 -339 59 -386 0 -26 -9 -81 -20 -122 -11 -41 -25 -100 -31
-130 -23 -119 -29 -138 -69 -235 -23 -55 -47 -125 -55 -155 -7 -30 -26 -85
-43 -121 -16 -37 -36 -92 -43 -124 -7 -31 -18 -59 -25 -62 -7 -2 -36 3 -64 11
-63 19 -116 13 -174 -20 -61 -34 -84 -60 -91 -101 -4 -21 -11 -51 -16 -67 -16
-52 -10 -114 16 -166 27 -54 32 -102 13 -117 -56 -43 -454 -97 -689 -94 l-135
2 -50 -51 c-55 -57 -108 -79 -143 -61 -11 7 -21 17 -21 23 0 21 129 205 166
238 40 35 187 110 215 110 29 0 159 50 232 89 80 42 169 131 217 217 140 249
149 288 145 576 -2 109 -7 202 -10 208 -12 19 -51 10 -77 -17 -14 -16 -40 -52
-58 -80 -38 -63 -95 -114 -165 -149 -54 -26 -69 -36 -186 -125 -41 -30 -97
-72 -124 -91 -28 -20 -91 -78 -140 -130 -115 -119 -218 -296 -230 -393 -8 -71
-42 -155 -62 -155 -25 0 -51 81 -62 200 -6 63 -18 144 -26 180 -23 103 -20
139 21 216 93 175 152 304 164 354 23 101 49 131 204 234 96 65 76 41 314 388
136 199 182 252 247 289 29 16 60 38 70 50 18 19 18 20 -1 39 -20 19 -164 78
-247 100 -63 17 -163 8 -254 -24 -90 -31 -126 -53 -233 -141 -130 -108 -166
-148 -207 -232 l-38 -78 -3 -205 c-1 -113 -7 -214 -11 -225 -5 -11 -12 -29
-15 -40 -6 -20 -6 -20 9 -1 11 14 15 16 15 5 1 -33 19 17 30 80 17 103 41 212
56 254 8 20 19 58 24 83 19 85 48 131 142 226 80 80 108 101 196 146 l103 52
110 0 c87 0 117 -4 140 -17 16 -10 29 -21 29 -26 0 -5 -37 -46 -83 -92 -45
-47 -108 -122 -140 -167 -32 -46 -68 -99 -82 -118 -13 -19 -50 -72 -81 -118
-42 -62 -76 -98 -133 -140 -221 -165 -235 -180 -269 -292 -27 -85 -44 -128
-93 -225 -60 -121 -72 -235 -45 -425 38 -262 80 -490 89 -487 6 2 28 32 49 68
50 83 150 179 320 307 76 56 177 137 225 179 113 97 108 92 101 99 -13 12
-133 -64 -229 -145 -148 -127 -227 -167 -243 -125 -9 23 75 132 171 224 76 73
137 120 218 169 22 13 56 39 75 57 19 18 53 42 76 53 42 22 74 53 138 133 29
38 44 48 66 48 19 0 33 -7 40 -20 29 -55 -36 -362 -101 -469 -21 -37 -45 -74
-52 -83 -18 -23 -173 -110 -352 -200 -160 -80 -267 -157 -322 -230 -81 -109
-144 -264 -127 -314 3 -10 15 -39 26 -64 66 -146 68 -153 41 -182 -34 -38 -83
-13 -111 59 -13 32 -75 292 -104 433 -10 52 -25 105 -33 117 -8 12 -15 34 -15
49 0 32 -25 166 -45 246 -8 32 -15 72 -15 90 0 18 -12 87 -26 153 -14 66 -29
173 -34 239 -5 65 -16 153 -24 195 -52 262 -67 696 -40 1127 4 66 3 103 -4
108 -6 3 3 20 23 40 18 19 38 43 43 53 18 32 20 10 6 -102 -20 -167 -18 -445
5 -621 11 -82 22 -183 26 -224 6 -68 41 -308 65 -450 11 -61 28 -110 40 -110
12 0 50 97 50 129 0 16 -5 42 -11 58 -6 15 -21 78 -34 138 -30 137 -40 333
-40 746 0 360 -2 351 89 342 47 -5 55 -3 72 18 38 47 114 109 133 109 11 0 53
-34 95 -76 65 -64 79 -74 92 -63 15 13 15 25 -8 120 -15 63 -1 95 72 158 87
76 120 131 120 201 0 44 -6 66 -24 92 -23 34 -23 35 -4 47 29 18 68 109 68
159 0 54 -27 106 -79 155 -23 20 -41 43 -40 50 0 6 36 44 80 82 133 117 149
183 30 121 -42 -22 -205 -76 -229 -76 -5 0 -13 23 -16 52 -4 28 -13 63 -21 77
-29 55 -129 130 -216 160 -56 20 -79 19 -181 -10 -40 -11 -55 -10 -107 4 -74
21 -163 22 -200 3 -15 -8 -44 -34 -63 -58 -19 -24 -47 -50 -62 -57 -26 -14
-28 -13 -79 39 -63 64 -103 90 -139 90 -24 0 -28 -4 -28 -28 0 -28 47 -113 70
-127 7 -4 23 -31 35 -60 13 -28 35 -59 49 -68 14 -10 26 -23 26 -31 0 -13 4
-16 113 -66 80 -37 97 -31 97 34 0 58 -25 183 -40 202 -23 27 8 44 97 51 98 7
116 3 181 -42 29 -19 59 -35 69 -35 9 0 43 18 74 40 32 22 64 40 72 40 19 0
127 -119 144 -158 19 -43 16 -57 -32 -114 -51 -63 -56 -91 -19 -123 27 -23 32
-23 132 -4 58 12 64 11 90 -8 15 -11 40 -45 56 -75 38 -75 31 -110 -30 -147
-57 -34 -62 -56 -30 -127 45 -97 31 -165 -42 -214 -56 -36 -97 -31 -179 22
-94 62 -92 61 -109 47 -14 -11 -15 -28 -9 -106 6 -83 5 -97 -15 -135 -11 -24
-34 -53 -50 -66 -27 -21 -31 -22 -62 -9 -19 8 -51 33 -73 56 -48 50 -66 51
-174 12 -78 -28 -80 -29 -108 -11 -17 10 -40 31 -52 46 -38 47 -18 142 45 217
27 33 31 62 9 71 -9 3 -46 -1 -83 -10 -123 -28 -117 -29 -166 7 -77 55 -126
153 -98 195 4 6 31 26 60 44 29 18 52 39 52 48 0 10 -11 40 -25 67 -15 32 -24
68 -25 99 0 42 5 53 34 82 19 19 43 34 54 34 34 0 36 19 3 51 -17 16 -34 29
-38 28 -5 0 -32 -12 -62 -27 -43 -21 -61 -39 -89 -84 -31 -52 -35 -66 -42
-162 -5 -73 -13 -114 -25 -132 -13 -20 -16 -39 -12 -73 16 -126 30 -153 99
-197 52 -33 56 -55 16 -110 -61 -84 -65 -93 -49 -104 10 -5 28 -3 50 7 110 47
139 40 175 -42 18 -40 37 -63 72 -87 26 -18 66 -49 90 -69 39 -34 46 -36 83
-29 50 9 53 -3 7 -25 -24 -12 -35 -25 -40 -47 -9 -44 -7 -123 4 -198 7 -45 7
-98 -2 -172 -8 -81 -9 -131 0 -205 6 -54 16 -143 22 -198 6 -55 20 -147 30
-205 11 -58 24 -167 30 -242 6 -76 15 -152 21 -170 5 -18 9 -53 9 -78 0 -25 7
-74 15 -110 15 -64 50 -251 62 -320 8 -52 52 -192 68 -216 13 -20 12 -23 -14
-34 -23 -9 -34 -9 -54 2 -45 23 -210 263 -256 372 -20 46 -20 46 0 128 21 85
21 96 -5 163 -17 46 -21 127 -6 154 5 10 19 63 31 117 21 98 21 101 4 274 -27
288 -46 374 -109 499 -18 36 -38 88 -45 115 -7 27 -22 63 -34 80 -45 63 -145
139 -260 197 -71 36 -80 39 -105 27 -36 -17 -39 -51 -12 -139 25 -78 24 -121
-5 -248 -16 -75 -23 -302 -10 -353 8 -29 -25 -65 -48 -51 -27 15 -104 108
-148 178 -47 75 -135 181 -211 253 -27 25 -48 48 -48 52 0 3 21 30 46 60 46
54 94 138 94 164 0 9 -12 40 -27 71 -25 50 -26 57 -12 71 9 8 51 24 95 35 123
31 131 52 43 116 -24 18 -58 45 -75 60 l-31 28 10 87 9 88 -41 53 c-22 29 -63
75 -91 101 -48 46 -110 126 -110 143 0 9 -61 60 -94 80 -12 7 -59 12 -113 13
-87 0 -94 1 -118 27 -14 15 -25 38 -25 51 0 43 -22 111 -42 129 -19 17 -20 17
-38 -7 -11 -14 -33 -54 -51 -88 -29 -59 -33 -63 -58 -58 -14 4 -57 9 -96 13
-63 5 -79 2 -155 -27 -88 -34 -130 -68 -162 -128 -13 -25 -36 -42 -95 -69
-104 -49 -140 -77 -169 -134 -35 -70 -28 -154 20 -247 31 -59 20 -76 -64 -101
-101 -31 -127 -81 -71 -135 27 -26 35 -28 89 -24 60 4 60 4 66 -25 3 -16 6
-62 6 -103 0 -92 6 -107 77 -191 32 -37 81 -97 108 -133 60 -81 107 -124 167
-155 60 -31 75 -31 169 2 77 28 77 28 99 8 12 -11 29 -33 37 -50 30 -57 74
-105 98 -105 26 0 35 17 35 67 0 35 36 107 68 136 11 11 33 16 58 15 21 -1 54
5 72 13 45 19 75 0 129 -82 23 -35 69 -102 103 -149 34 -47 71 -99 83 -117 12
-17 50 -66 85 -108 35 -43 74 -99 87 -124 13 -26 44 -73 69 -103 51 -62 53
-70 31 -88 -13 -11 -25 -10 -68 5 -42 14 -93 18 -271 21 -121 2 -244 8 -273
14 -29 6 -92 11 -140 11 -49 0 -132 5 -186 11 -130 14 -139 7 -101 -77 65
-142 270 -337 445 -423 152 -75 180 -84 294 -93 174 -14 374 -19 401 -9 13 5
77 12 143 16 l118 7 40 -54 c21 -30 49 -73 60 -96 20 -37 44 -73 142 -210 17
-23 62 -88 100 -145 80 -118 170 -242 247 -342 30 -38 54 -78 54 -87 0 -10
-11 -26 -24 -34 -23 -15 -27 -14 -101 30 -42 25 -100 65 -129 89 -85 71 -242
170 -416 261 -90 47 -171 92 -180 99 -17 15 -234 146 -313 189 -29 16 -92 42
-140 58 -49 16 -107 39 -129 50 -82 42 -265 107 -347 123 -47 10 -96 23 -110
31 -47 24 -152 45 -222 45 -44 0 -91 7 -126 20 -32 11 -83 20 -114 20 -63 0
-69 6 -69 68 0 27 -11 54 -40 96 -22 32 -40 69 -40 81 0 13 15 37 38 57 43 39
92 102 92 117 0 13 -9 14 -119 15 l-83 1 -17 41 c-31 78 -84 126 -177 160 -59
22 -79 25 -140 20 -69 -6 -72 -6 -120 29 -27 19 -73 46 -103 61 -50 25 -57 26
-105 15 -74 -17 -148 -53 -189 -95 -20 -20 -46 -36 -58 -36 -24 0 -129 74
-129 90 0 16 -40 12 -46 -4 -3 -8 1 -39 10 -70 9 -30 16 -70 16 -90 0 -31 -6
-39 -55 -71 -59 -40 -101 -84 -117 -124 -6 -14 -16 -66 -23 -116 -7 -49 -25
-120 -39 -158 -37 -96 -37 -224 -1 -282 36 -58 32 -100 -15 -187 -22 -40 -40
-79 -40 -85 0 -21 42 -14 104 17 85 43 102 41 120 -18 37 -127 94 -198 202
-253 l62 -31 70 31 c81 36 135 39 177 11 47 -31 153 -28 211 6 55 32 91 29
156 -15 51 -34 85 -40 95 -15 3 9 -1 47 -9 85 l-15 69 33 25 c18 14 53 34 77
44 53 23 105 82 145 165 38 80 69 96 145 76 28 -7 85 -12 128 -11 47 1 90 -3
111 -12 18 -8 65 -21 103 -31 39 -9 124 -36 189 -59 178 -64 179 -80 12 -162
-94 -46 -132 -71 -214 -145 -88 -79 -132 -135 -132 -168 0 -17 -221 -258 -267
-291 -23 -17 -50 -42 -59 -56 -23 -36 -93 -69 -187 -90 -42 -9 -79 -21 -82
-26 -14 -21 29 -54 145 -111 111 -56 133 -63 197 -66 53 -3 91 1 140 16 37 11
103 27 146 36 64 13 95 26 165 72 100 65 154 113 189 168 14 21 51 67 84 102
32 35 59 69 59 75 0 54 270 337 348 365 20 7 62 13 93 14 44 0 64 -6 101 -29
26 -17 125 -74 221 -129 179 -103 237 -140 345 -225 55 -44 62 -52 49 -64 -8
-8 -50 -21 -93 -29 -94 -16 -163 -38 -349 -111 -200 -79 -212 -86 -386 -216
-90 -67 -109 -86 -109 -109 0 -11 -26 -47 -59 -81 -32 -34 -70 -80 -84 -102
-55 -84 -88 -126 -132 -168 -71 -68 -60 -88 59 -107 37 -6 92 -24 124 -40 57
-30 57 -30 135 -18 62 9 85 9 113 -1 25 -9 43 -10 62 -3 15 6 44 13 64 15 20
3 70 21 110 40 40 19 91 38 113 41 77 14 299 157 366 236 24 29 74 85 112 124
55 60 67 79 67 107 1 27 12 46 54 92 51 57 56 60 147 83 51 14 100 22 107 19
21 -8 10 -87 -22 -159 -14 -32 -26 -67 -26 -78 0 -11 -16 -55 -35 -98 -42 -93
-47 -162 -15 -203 22 -27 132 -87 161 -87 18 0 42 -27 70 -77 12 -21 28 -31
66 -41 33 -9 69 -29 104 -59 57 -48 86 -63 124 -63 43 0 72 -21 94 -69 44 -96
102 -364 122 -572 14 -145 2 -345 -26 -419 -9 -25 -23 -61 -30 -80 -14 -37 -7
-68 18 -84 13 -9 38 0 110 36 112 57 136 66 211 84 81 20 85 24 75 82 -4 26
-15 130 -23 232 -9 102 -25 228 -36 280 -29 141 -86 344 -110 389 -30 59 -26
76 17 89 31 10 40 9 55 -5 10 -9 18 -20 18 -24 0 -4 30 -50 66 -101 36 -51 84
-124 106 -163 91 -160 125 -214 168 -264 106 -125 121 -145 139 -179 31 -59
132 -145 192 -162 45 -13 102 14 170 81 68 68 94 133 84 211 -9 69 -25 93 -84
123 -100 50 -241 157 -371 281 -52 50 -109 101 -126 115 -48 37 -169 179 -193
228 -28 53 -22 84 19 101 55 23 125 -7 262 -111 73 -56 186 -109 230 -109 13
0 50 -13 83 -29 104 -51 155 -71 178 -71 12 0 47 -7 77 -16 75 -21 429 -29
455 -10 22 16 14 45 -25 90 -16 17 -37 52 -46 77 -10 24 -28 59 -41 78 -25 36
-25 37 -27 91 -1 28 -7 37 -30 49 -39 19 -102 18 -151 -2 -60 -24 -203 -23
-285 4 -161 51 -358 125 -376 140 -31 26 -15 45 62 74 66 25 82 36 114 80 40
53 215 221 290 278 25 19 97 94 160 166 145 165 161 168 242 48 23 -34 62 -84
87 -110 25 -26 49 -54 54 -62 4 -9 31 -33 60 -55 29 -22 68 -54 88 -71 20 -17
53 -34 73 -39 46 -10 93 19 191 119 38 39 74 71 79 71 5 0 64 55 131 123 67
68 149 140 181 161 74 48 124 95 124 115 0 9 -9 31 -20 49 -11 18 -20 44 -20
58 0 14 -19 57 -42 96 -23 40 -52 107 -64 152 -12 45 -34 108 -48 141 -33 78
-33 98 6 130 17 14 50 50 72 78 22 29 74 90 115 137 45 51 86 111 103 150 29
64 63 110 80 110 16 0 46 -83 57 -159 7 -40 15 -81 20 -90 5 -9 12 -41 16 -71
3 -30 11 -71 16 -90 19 -70 31 -476 19 -665 -10 -175 -54 -467 -85 -565 -8
-25 -19 -74 -26 -110 -7 -36 -18 -77 -26 -93 -27 -55 -77 -221 -63 -212 10 6
71 -14 85 -28 10 -10 -18 -7 -78 9 -24 5 -28 1 -46 -38 -11 -23 -29 -77 -41
-118 -38 -133 -42 -144 -90 -200 -26 -30 -59 -80 -73 -110 -14 -30 -48 -86
-76 -125 -51 -70 -106 -152 -157 -234 -49 -78 -358 -425 -439 -491 -16 -13
-74 -64 -127 -112 -53 -48 -130 -109 -170 -134 -40 -26 -91 -61 -113 -79 -39
-31 -140 -95 -315 -197 -105 -62 -367 -178 -503 -223 -56 -18 -133 -45 -172
-59 -101 -37 -295 -86 -405 -102 -52 -7 -124 -20 -160 -28 -36 -9 -108 -15
-161 -16 -52 0 -138 -7 -190 -16 -59 -10 -118 -14 -159 -10 -36 3 -150 12
-255 21 -104 8 -216 22 -247 30 -31 8 -88 17 -125 20 -111 11 -363 84 -493
143 -25 12 -70 30 -100 40 -129 46 -202 77 -320 135 -136 67 -150 76 -458 278
l-207 136 -221 225 c-229 234 -390 415 -484 546 -30 43 -77 100 -104 127 -95
97 -170 181 -223 250 -29 39 -70 91 -90 117 -21 26 -74 93 -117 150 -44 57
-103 130 -131 163 -66 77 -185 234 -185 244 0 7 -81 114 -119 156 -51 57 -154
191 -186 242 -20 32 -58 81 -84 108 -61 65 -125 143 -141 175 -7 14 -32 48
-55 75 -23 28 -61 79 -85 115 -23 36 -75 99 -114 140 -39 41 -93 107 -120 145
-55 77 -79 108 -158 204 -91 110 -218 290 -218 310 0 5 -16 23 -35 38 -31 24
-112 123 -193 236 -13 18 -39 49 -59 69 -20 21 -35 39 -32 41 35 27 212 148
242 165 22 12 66 46 97 75 71 65 181 156 242 199 26 18 84 62 128 98 45 36
116 92 158 125 94 73 107 84 196 161 39 33 116 91 171 129 55 37 129 92 165
120 36 29 90 69 120 90 30 21 64 46 75 56 11 9 38 27 60 39 22 12 49 31 60 42
11 10 40 34 65 53 25 19 115 87 200 152 85 65 185 142 222 173 87 72 162 129
213 161 22 14 49 36 60 49 11 12 88 67 170 123 83 55 184 130 225 167 41 37
101 84 133 105 33 21 90 67 128 102 38 34 77 63 87 63 10 0 23 5 29 11 9 9 20
9 44 0 44 -15 116 -14 213 4 44 9 114 20 154 26 106 16 230 80 257 133 11 21
60 76 108 122 49 46 86 88 82 94 -3 5 -21 17 -38 26 -18 9 -35 22 -39 28 -18
28 79 85 146 86 21 0 78 -10 125 -21 117 -29 151 -23 211 41 39 42 116 102
249 192 18 13 50 37 70 53 20 17 62 48 95 70 65 44 76 60 53 82 -14 14 -21 10
-70 -39 -30 -29 -72 -63 -93 -73 -22 -11 -52 -30 -67 -42 -16 -13 -35 -23 -44
-23 -8 0 -24 -11 -34 -24 -24 -31 -49 -36 -88 -20 -42 18 -35 36 17 49 29 7
59 27 99 66 76 72 126 111 251 193 97 64 120 86 87 86 -23 0 -222 -135 -317
-216 -72 -61 -94 -74 -122 -74 -40 0 -55 24 -31 51 9 9 39 27 66 39 28 11 52
27 55 35 3 8 27 28 52 45 26 16 74 52 107 80 33 28 105 86 160 129 55 43 106
85 114 94 19 24 -2 21 -24 -3 -10 -11 -23 -20 -30 -20 -20 0 -127 -74 -205
-143 -41 -37 -81 -67 -88 -67 -7 0 -32 -18 -56 -40 -41 -38 -45 -39 -75 -29
-48 17 -40 54 23 99 27 19 67 50 90 67 22 18 75 56 116 84 41 29 94 69 116 88
23 20 74 54 113 75 39 22 94 59 121 82 27 23 66 52 87 65 56 34 129 95 204
172 86 88 106 89 139 11z m604 -1 c52 -72 278 -281 366 -339 43 -28 104 -74
136 -103 33 -29 123 -90 201 -137 78 -46 174 -106 214 -134 40 -27 76 -50 80
-50 4 0 36 -17 71 -37 35 -21 88 -49 118 -63 74 -34 153 -81 163 -97 4 -7 15
-13 23 -13 24 0 104 -59 113 -83 5 -12 11 -49 15 -82 8 -74 56 -215 107 -316
43 -86 75 -113 151 -124 46 -7 88 -34 88 -58 1 -7 7 -48 15 -92 8 -43 12 -82
9 -85 -8 -7 -64 61 -64 76 0 7 7 14 15 18 27 10 16 26 -17 26 -42 0 -94 19
-215 75 -53 25 -106 45 -119 45 -13 0 -33 -13 -49 -32 -37 -44 -29 -87 24
-142 49 -51 61 -81 61 -157 0 -54 -2 -60 -25 -71 -30 -14 -81 1 -130 37 -16
13 -56 35 -88 50 -95 44 -294 224 -398 360 -13 17 -60 73 -104 125 -45 52
-101 124 -125 160 -25 36 -68 92 -97 124 -51 57 -52 60 -36 79 10 11 28 23 41
28 32 12 27 24 -23 50 -86 46 -380 328 -453 436 -13 18 -37 40 -55 47 -25 12
-28 15 -11 15 70 3 172 -70 435 -314 134 -124 243 -216 274 -233 14 -7 43 -25
64 -40 21 -15 58 -41 83 -59 46 -33 98 -52 98 -37 0 19 -49 65 -122 113 -83
55 -110 87 -87 102 24 15 51 10 83 -15 17 -13 45 -26 63 -30 17 -4 57 -23 90
-43 32 -19 133 -73 226 -120 127 -64 175 -84 200 -81 l32 3 -45 29 c-25 17
-124 69 -220 117 -96 49 -198 103 -227 121 -28 18 -64 41 -80 51 -15 9 -53 35
-83 57 -30 21 -60 39 -66 39 -6 1 -31 18 -55 39 -24 21 -84 69 -133 107 -195
154 -254 205 -380 334 -72 74 -166 169 -208 212 -43 43 -78 84 -78 92 0 20 57
67 81 67 11 0 33 -19 53 -47z m-3552 -1010 c24 -22 23 -30 -13 -71 -18 -20
-39 -53 -49 -74 -18 -40 -104 -131 -114 -120 -11 10 -6 59 9 95 8 20 15 51 15
70 0 24 8 41 33 64 58 55 88 64 119 36z m184 -7 c7 -28 -64 -191 -120 -279
-39 -60 -144 -163 -231 -228 -33 -24 -61 -47 -63 -51 -8 -17 -50 -7 -72 17
l-23 24 132 139 c72 76 148 161 168 188 21 27 48 60 61 74 13 14 30 37 37 51
15 28 80 89 95 89 5 0 12 -11 16 -24z m7 -313 c16 -21 27 -49 27 -67 0 -38
-41 -101 -78 -120 -39 -20 -63 -49 -97 -119 -22 -44 -43 -71 -75 -93 -25 -18
-60 -46 -79 -64 -18 -17 -55 -42 -80 -55 -49 -24 -66 -50 -102 -153 -23 -66
-46 -100 -123 -180 -91 -95 -167 -150 -303 -219 -155 -78 -304 -126 -458 -148
-146 -21 -171 -29 -274 -89 -119 -70 -123 -88 -12 -61 53 13 74 14 90 5 12 -6
21 -14 21 -19 0 -67 -382 -428 -658 -621 -75 -53 -162 -115 -192 -138 -30 -24
-101 -65 -157 -92 -55 -27 -104 -53 -107 -59 -13 -21 -115 -71 -145 -71 -59 0
-93 32 -49 46 37 11 224 182 273 249 45 62 128 145 198 198 37 28 77 92 77
122 0 27 41 98 83 144 l40 44 -26 23 c-15 13 -47 25 -74 29 -121 17 -218 62
-199 93 3 6 35 31 70 56 49 35 81 49 136 61 39 8 82 15 94 15 13 0 39 11 58
24 l35 23 10 -27 c13 -35 78 -48 124 -25 43 23 44 36 10 91 -17 26 -31 58 -31
70 0 29 74 172 108 208 27 29 112 87 145 99 27 10 55 -25 63 -80 3 -26 12 -58
18 -69 17 -34 68 -71 135 -100 l61 -27 78 31 c42 16 91 33 108 36 17 4 62 25
100 48 38 23 90 51 116 64 26 13 55 35 65 50 56 80 87 103 204 153 34 14 61
38 106 93 71 88 78 100 88 153 12 67 32 94 88 119 29 13 69 37 88 53 18 17 59
45 89 63 81 48 163 123 220 201 28 38 54 69 58 69 4 -1 19 -17 35 -37z m6079
-119 c35 -42 79 -99 98 -127 20 -29 43 -62 51 -75 10 -14 35 -28 65 -35 47
-12 49 -14 88 -92 23 -45 51 -94 62 -110 32 -44 154 -328 154 -358 0 -18 95
-199 154 -291 31 -50 56 -94 56 -100 0 -12 109 -156 135 -178 11 -9 40 -20 65
-23 107 -15 160 -58 160 -132 0 -53 -28 -86 -87 -102 -21 -6 -47 -17 -58 -25
-18 -13 -19 -17 -7 -48 65 -159 77 -225 92 -473 7 -136 8 -238 0 -360 -11
-172 -14 -184 -66 -277 -8 -14 -19 -53 -25 -85 -11 -56 -40 -99 -60 -87 -14 8
-10 75 7 119 40 101 57 356 33 481 -19 95 -29 86 -29 -23 0 -64 -5 -116 -15
-143 -8 -23 -15 -67 -15 -98 l0 -55 -35 34 c-40 39 -42 45 -16 54 25 8 34 32
20 58 -18 32 -32 158 -34 307 -2 127 -24 269 -53 355 -6 17 -17 53 -26 80 -33
107 -62 182 -87 225 -15 25 -36 72 -47 106 -11 33 -29 78 -40 100 -11 22 -30
78 -41 125 -12 46 -35 106 -51 132 -17 27 -42 84 -56 127 -14 44 -37 96 -51
117 -22 33 -24 41 -14 68 16 45 15 50 -24 101 -19 25 -35 52 -35 60 0 30 -44
100 -87 138 -49 43 -84 103 -77 132 3 11 -8 39 -26 67 -16 26 -30 51 -30 55 0
4 -14 27 -31 52 -27 41 -97 178 -120 239 -10 25 1 41 28 41 7 0 41 -34 75 -76z
m-6573 32 c9 -11 1 -23 -41 -61 -29 -26 -81 -69 -116 -96 -35 -26 -82 -69
-105 -95 -23 -26 -66 -63 -95 -82 -30 -18 -71 -49 -91 -66 -20 -18 -65 -52
-101 -76 -89 -59 -179 -130 -280 -220 -128 -114 -206 -170 -239 -170 -16 0
-33 39 -26 60 6 18 126 126 260 235 33 27 78 66 100 86 22 20 72 61 110 90 39
29 88 68 109 87 21 19 93 74 160 123 67 49 137 104 156 123 19 19 51 44 70 55
40 24 112 28 129 7z m641 -156 c50 -34 94 -68 97 -77 8 -21 -61 -78 -257 -210
-66 -45 -190 -144 -210 -168 -8 -10 -46 -42 -85 -71 -38 -29 -87 -67 -108 -85
-43 -36 -81 -34 -99 5 -9 21 -6 29 28 64 22 21 66 58 99 82 63 45 155 135 183
179 9 14 38 55 64 89 26 35 50 72 53 83 3 10 38 39 77 65 65 43 69 49 64 75
-3 16 -4 29 -1 29 2 0 45 -27 95 -60z m-833 -189 c18 -24 15 -61 -10 -113 -17
-36 -40 -59 -100 -103 -43 -30 -104 -69 -135 -87 -32 -17 -77 -45 -102 -63
-25 -18 -70 -45 -100 -60 -29 -15 -66 -36 -81 -47 -20 -15 -35 -18 -58 -13
-34 7 -52 26 -31 33 7 3 34 27 59 55 25 27 73 67 106 89 33 22 85 66 115 97
31 31 83 77 115 104 33 26 85 67 115 91 57 46 82 50 107 17z m5713 7 c19 -12
42 -27 51 -33 9 -5 46 -27 81 -47 35 -21 74 -48 86 -61 27 -29 52 -99 52 -146
0 -51 -27 -174 -56 -255 -20 -55 -26 -96 -31 -205 -6 -148 3 -203 38 -221 27
-15 24 -40 -5 -40 -15 0 -36 14 -56 38 -18 20 -71 78 -119 127 -48 50 -104
119 -126 155 -21 36 -45 71 -51 78 -7 6 -16 22 -20 35 -8 25 -15 34 -103 128
-89 96 -82 113 49 115 41 1 88 2 103 3 22 0 31 8 44 38 13 32 14 47 4 97 -7
33 -23 80 -37 105 -27 51 -30 81 -12 99 19 19 70 14 108 -10z m-8907 -230 c48
-25 108 -83 138 -132 17 -28 46 -72 64 -98 58 -82 111 -307 101 -427 -3 -36
-6 -84 -6 -106 1 -34 -8 -52 -54 -109 -56 -70 -161 -166 -182 -166 -19 0 -85
40 -120 73 -31 28 -69 114 -108 242 -27 90 -117 227 -170 260 -18 11 -67 43
-109 71 l-76 52 92 7 c161 13 246 75 329 240 34 67 60 103 76 105 2 0 13 -5
25 -12z m8235 -13 c7 -14 31 -51 54 -82 24 -30 56 -74 72 -97 16 -22 52 -69
80 -102 28 -34 94 -117 146 -185 52 -67 123 -155 157 -195 34 -39 82 -104 107
-143 26 -39 90 -121 144 -181 92 -103 224 -289 285 -402 22 -43 27 -64 27
-125 0 -47 4 -72 10 -68 6 3 10 14 10 24 0 9 14 30 30 46 35 34 33 35 79 -55
16 -30 62 -121 104 -202 41 -82 80 -163 86 -181 6 -18 31 -55 54 -82 44 -50
44 -50 46 -135 1 -47 6 -102 12 -124 7 -26 7 -47 0 -65 -5 -14 -13 -46 -17
-71 -10 -68 -24 -96 -110 -210 -82 -110 -104 -132 -264 -266 -139 -117 -165
-135 -270 -194 -52 -29 -128 -75 -169 -101 -41 -27 -84 -49 -96 -49 -44 0
-159 105 -153 138 2 9 48 40 103 69 116 62 156 96 137 115 -10 10 -25 8 -75
-11 -73 -27 -275 -100 -298 -107 -8 -3 -21 2 -29 11 -16 19 0 54 39 89 13 11
56 51 95 87 39 36 98 86 131 111 77 59 119 103 111 117 -19 29 -59 8 -205
-108 -78 -61 -142 -102 -198 -127 l-84 -38 -51 50 c-55 53 -128 141 -128 154
0 15 158 195 241 275 45 43 92 93 104 111 12 17 49 62 83 100 63 70 118 151
193 282 23 41 52 86 64 100 39 47 137 240 133 264 -4 29 -62 68 -102 68 -29 0
-35 -6 -74 -80 l-43 -81 30 -46 c17 -26 31 -50 31 -55 0 -5 -41 -66 -91 -136
-50 -70 -104 -150 -121 -179 -18 -31 -72 -92 -141 -155 -112 -104 -146 -137
-226 -222 -48 -51 -71 -55 -85 -14 -7 21 -2 45 24 115 18 48 45 113 60 143 15
30 37 87 49 125 13 39 43 111 67 161 36 75 45 106 51 170 6 74 48 207 75 242
6 6 14 51 19 100 5 48 14 101 20 117 6 17 13 89 16 162 5 118 3 141 -17 215
-25 87 -47 117 -88 118 -44 0 -88 -121 -63 -176 15 -33 35 -30 65 9 l26 32 0
-42 c0 -23 -13 -95 -29 -161 -16 -66 -33 -146 -37 -178 -8 -67 -34 -134 -70
-181 -29 -38 -35 -40 -51 -13 -13 20 -19 56 -48 285 -9 72 -23 162 -30 200
-18 90 -35 228 -35 285 -1 25 -7 72 -15 105 -8 33 -19 121 -25 195 -6 74 -18
170 -26 212 -11 56 -12 83 -4 97 14 28 13 63 -5 88 -16 23 -14 27 35 50 39 18
56 15 68 -12z m-3870 -197 c29 -28 42 -77 42 -158 0 -70 4 -82 35 -97 15 -8
30 -6 60 7 54 23 73 48 94 116 22 76 52 99 114 90 25 -4 60 -17 79 -30 29 -19
33 -27 33 -67 0 -56 3 -61 70 -98 73 -41 155 -121 155 -150 0 -35 -36 -96 -77
-130 -20 -17 -67 -40 -104 -51 -82 -26 -92 -36 -83 -88 10 -66 35 -84 134 -94
17 -2 32 -15 48 -45 22 -39 22 -45 10 -110 -16 -90 -48 -123 -118 -123 -58 0
-81 -17 -118 -85 -22 -40 -35 -53 -68 -64 -36 -13 -46 -12 -99 6 l-60 20 -5
79 c-6 92 -26 134 -65 134 -13 0 -27 -5 -31 -11 -3 -6 -6 -51 -5 -99 l2 -87
-51 -46 c-101 -91 -187 -97 -249 -19 -54 69 -57 85 -27 136 44 76 7 105 -94
75 -48 -15 -80 -7 -115 28 -24 25 -27 33 -21 76 7 66 37 109 105 157 59 41 91
89 91 135 0 20 -11 30 -52 51 -57 28 -124 79 -174 131 l-32 33 35 65 c38 73
68 98 150 127 76 26 109 51 123 92 13 39 38 65 100 101 38 22 53 25 95 20 30
-4 59 -15 73 -27z m-1318 -243 c23 -28 2 -63 -63 -107 -34 -23 -87 -62 -117
-88 -30 -25 -101 -76 -157 -114 -68 -46 -106 -78 -114 -97 -6 -16 -16 -29 -22
-29 -16 0 -77 50 -77 64 0 6 15 27 34 45 20 19 43 58 56 92 24 68 45 85 120
99 32 6 106 38 184 80 72 38 134 69 137 70 4 0 12 -7 19 -15z m-1693 -439 l28
-25 -39 -40 c-22 -22 -58 -49 -81 -60 -45 -21 -69 -44 -63 -61 2 -6 50 21 108
60 87 58 112 70 146 70 22 0 48 -6 58 -13 16 -12 16 -15 -7 -57 -14 -25 -28
-67 -32 -95 -10 -69 -17 -79 -78 -109 -65 -31 -155 -123 -190 -192 -40 -79
-108 -147 -189 -189 -192 -101 -348 -190 -396 -227 -62 -46 -141 -144 -159
-195 -7 -20 -29 -60 -49 -90 -55 -83 -85 -158 -95 -236 -5 -40 -13 -92 -18
-117 -20 -92 -21 -118 -7 -227 15 -122 25 -141 118 -222 119 -104 154 -233
104 -384 -27 -82 -49 -217 -43 -264 2 -18 2 -34 0 -37 -7 -7 -140 43 -202 75
-41 22 -67 29 -112 29 -32 0 -70 5 -85 10 -34 13 -141 91 -148 107 -7 18 52
121 74 128 10 3 33 22 50 41 26 30 30 41 25 68 -7 33 -47 76 -71 76 -28 0 -93
-40 -118 -73 -15 -20 -26 -47 -26 -65 0 -17 -9 -52 -21 -79 -11 -26 -25 -88
-31 -138 -14 -130 -47 -302 -70 -363 -11 -30 -36 -82 -55 -115 -51 -91 -64
-125 -76 -202 -20 -133 -4 -554 23 -605 7 -13 16 -67 20 -120 6 -81 13 -109
49 -190 23 -52 58 -156 78 -230 31 -118 36 -155 42 -297 3 -89 10 -165 14
-169 4 -5 16 -3 25 3 13 8 17 24 16 72 0 33 2 61 6 61 3 0 21 -16 39 -34 34
-35 34 -36 26 -98 -13 -101 -10 -184 9 -213 9 -14 20 -25 25 -25 18 0 31 65
25 120 -4 39 -2 60 8 74 13 17 16 15 37 -33 16 -39 22 -72 22 -134 1 -108 7
-135 29 -142 14 -4 28 4 49 27 26 28 32 31 41 18 5 -8 10 -37 10 -65 1 -102
24 -123 49 -44 7 24 20 59 28 78 17 41 8 75 -46 164 -21 34 -45 78 -55 97 -9
20 -36 59 -61 87 -25 28 -49 61 -55 74 -6 13 -30 51 -55 84 -68 89 -103 169
-114 256 -6 41 -15 87 -20 102 -7 17 -7 28 -1 32 6 4 10 -3 10 -15 0 -28 44
-84 85 -108 26 -16 35 -30 45 -71 7 -31 29 -75 55 -109 23 -31 49 -70 58 -87
26 -51 394 -414 502 -497 33 -25 92 -74 130 -110 39 -35 84 -73 100 -85 103
-71 365 -178 470 -192 39 -5 93 -19 120 -30 80 -31 198 -44 240 -26 19 7 35
19 35 25 0 17 -57 37 -155 54 -205 35 -509 154 -611 238 -27 22 -71 57 -99 78
-78 58 -666 648 -713 715 -113 161 -217 324 -247 386 -60 125 -134 520 -145
778 l-8 174 34 50 c30 43 34 57 34 113 0 63 1 64 33 78 29 12 34 12 52 -5 14
-14 19 -31 18 -62 -5 -103 40 -375 93 -560 28 -98 78 -229 149 -387 81 -181
105 -223 158 -280 29 -31 75 -89 102 -129 95 -136 132 -177 197 -211 35 -19
81 -47 103 -64 22 -17 80 -51 128 -75 l87 -45 77 14 c43 8 112 15 154 16 42 0
81 4 88 8 13 8 128 -57 200 -114 77 -61 77 -84 1 -185 -48 -63 -58 -96 -34
-120 14 -14 29 -16 71 -12 40 4 80 -1 150 -19 95 -25 112 -32 183 -76 30 -19
49 -22 135 -22 117 1 186 20 285 80 59 35 170 138 206 190 19 28 34 181 34
359 0 170 -7 209 -52 301 -37 76 -195 264 -262 312 -25 18 -46 39 -46 47 0 7
21 18 52 25 l52 13 28 -34 c15 -19 37 -45 49 -59 11 -14 58 -64 103 -111 92
-96 160 -205 181 -289 20 -78 45 -226 45 -266 0 -23 5 -34 15 -34 20 0 45 52
45 92 -1 64 -40 209 -79 294 -34 71 -59 104 -153 205 -62 67 -113 126 -113
132 0 22 64 29 114 12 76 -25 185 -144 253 -274 51 -99 91 -113 69 -24 -13 50
-82 155 -141 213 -48 47 -155 130 -211 162 -48 28 -123 48 -247 67 -98 15
-167 14 -225 -4 -76 -23 -199 -92 -258 -144 -46 -41 -57 -59 -76 -117 -19 -61
-34 -155 -35 -221 0 -12 16 -44 35 -70 35 -49 57 -107 57 -153 -1 -24 -1 -24
-13 -4 -7 11 -27 38 -45 60 -56 66 -94 166 -101 267 -3 48 -10 88 -16 90 -22
5 -34 -69 -25 -162 9 -99 31 -158 94 -250 20 -29 36 -63 36 -76 0 -19 -7 -23
-46 -29 -26 -3 -80 -6 -120 -6 -64 0 -80 4 -140 36 -96 51 -207 127 -238 165
-44 52 -76 125 -82 188 l-7 59 50 54 c59 63 69 92 42 119 -25 25 -112 26 -171
2 -24 -10 -69 -17 -100 -18 -51 0 -61 3 -86 30 -47 48 -74 126 -66 186 8 62
35 103 96 145 l48 32 115 -5 c122 -6 149 0 174 38 18 30 -7 63 -77 98 -65 33
-89 66 -108 150 -11 45 -11 66 2 123 16 80 20 88 86 183 37 55 69 86 140 137
128 91 137 103 148 180 11 77 17 95 34 101 24 9 81 -28 152 -98 87 -86 119
-156 111 -246 -5 -57 -42 -144 -72 -169 -23 -19 -50 -76 -64 -137 -16 -64 -31
-86 -54 -77 -34 13 -39 40 -27 137 6 51 20 129 30 173 24 98 26 156 6 148 -28
-11 -58 -111 -82 -272 -17 -106 -17 -115 0 -167 22 -72 48 -98 121 -129 58
-23 71 -25 250 -24 105 0 213 0 240 1 28 0 78 -10 115 -22 63 -23 140 -67 140
-81 0 -4 -23 -1 -52 6 -94 25 -197 13 -295 -33 -69 -32 -28 -60 64 -44 73 14
143 14 198 0 29 -7 58 -8 89 -1 42 9 54 6 191 -49 129 -51 161 -69 273 -151
133 -98 315 -276 366 -357 16 -25 47 -73 68 -107 21 -33 52 -101 69 -150 28
-81 31 -103 36 -246 5 -179 -2 -211 -78 -339 -42 -70 -48 -111 -17 -117 25 -5
108 75 108 104 0 28 25 54 53 54 39 0 106 -41 147 -91 36 -42 44 -62 61 -141
34 -160 22 -268 -39 -340 l-26 -31 35 -28 c89 -74 128 -146 115 -212 -9 -43
-60 -120 -102 -152 -41 -31 -187 -105 -209 -105 -19 0 -31 24 -39 80 -4 27
-26 77 -54 123 -38 63 -56 83 -92 102 -62 31 -147 49 -213 43 -54 -4 -91 -25
-162 -91 -37 -35 -105 -78 -169 -108 -61 -29 -69 -30 -168 -25 -56 2 -120 8
-140 11 -29 6 -43 3 -67 -14 -17 -13 -31 -28 -31 -35 0 -8 15 -39 34 -71 35
-58 53 -111 41 -123 -3 -3 -83 -6 -178 -6 -161 0 -178 2 -257 28 -47 15 -104
32 -127 38 -23 5 -58 20 -78 33 -19 14 -35 20 -35 15 0 -10 -71 -1 -84 11 -6
5 -26 9 -47 9 -20 0 -58 12 -85 26 -27 15 -63 32 -81 38 -17 6 -80 52 -138
101 -156 131 -149 126 -168 112 -9 -7 -21 -34 -26 -62 -11 -57 -33 -79 -94
-96 -92 -25 -217 21 -311 114 -47 47 -48 50 -42 95 5 39 1 56 -22 101 -15 30
-37 60 -49 68 -20 14 -25 11 -82 -45 -43 -43 -75 -65 -111 -77 l-51 -17 -62
41 c-141 94 -179 152 -198 303 -12 97 -30 148 -53 148 -18 0 -53 -44 -88 -109
-29 -54 -69 -87 -92 -78 -15 6 -24 36 -45 143 -18 99 -14 175 15 251 14 37 32
96 40 131 16 73 7 131 -51 317 -35 112 -66 241 -85 352 -6 35 -18 82 -26 105
-25 73 -35 231 -34 540 1 266 3 302 20 352 11 31 20 72 20 91 0 45 30 136 82
245 22 47 48 123 58 170 10 47 29 125 44 174 20 66 26 111 26 180 0 69 5 102
20 135 11 24 20 49 20 55 0 7 18 42 40 79 41 68 48 91 29 102 -31 20 -80 -25
-137 -126 -32 -57 -72 -219 -72 -291 0 -79 -15 -128 -40 -128 -30 0 -37 21
-43 115 -3 50 -11 133 -17 185 -7 54 -9 123 -5 160 4 36 11 106 15 155 17 178
31 299 40 339 5 23 10 67 10 99 0 32 7 74 16 95 9 20 29 75 46 122 27 77 73
179 161 360 22 46 57 90 121 155 l90 90 86 0 c78 0 89 2 117 26 47 40 247 139
280 139 15 0 44 8 63 18 19 11 50 22 68 25 39 8 294 189 382 270 19 18 61 53
93 78 219 168 249 182 304 135z m8421 -183 c11 -27 28 -77 37 -113 9 -36 27
-99 40 -140 54 -171 60 -216 49 -390 -8 -125 -14 -164 -27 -177 -23 -23 -40
-6 -88 89 -21 43 -55 102 -74 132 -19 29 -52 91 -73 137 -22 46 -51 95 -67
109 -15 14 -41 52 -57 85 -17 33 -57 90 -90 127 -33 37 -57 72 -53 77 11 19
90 23 127 8 32 -14 39 -13 74 3 22 9 61 36 89 59 66 55 87 54 113 -6z m-4061
-170 c77 -101 145 -225 159 -291 59 -274 57 -256 65 -577 5 -170 11 -345 15
-387 5 -60 3 -87 -10 -118 -19 -48 -21 -107 -3 -136 6 -12 29 -54 51 -95 21
-41 53 -94 70 -119 18 -25 61 -92 96 -150 35 -58 78 -123 95 -145 98 -123 225
-335 225 -374 0 -17 -22 -13 -78 15 -52 26 -87 63 -135 144 -14 25 -45 65 -67
89 -23 24 -47 56 -55 71 -8 16 -43 71 -77 124 -73 110 -141 221 -222 358 -32
54 -71 112 -89 129 -61 62 -136 75 -242 44 -50 -15 -98 -18 -280 -17 l-220 0
-90 37 c-149 60 -255 113 -353 178 -77 50 -99 70 -126 116 -18 31 -43 62 -57
68 -22 12 -19 13 31 14 76 2 97 -1 141 -16 29 -11 59 -12 124 -5 68 7 96 6
138 -7 35 -11 102 -17 202 -19 108 -2 164 -7 200 -19 63 -21 175 -76 175 -86
0 -4 -15 -16 -32 -27 -49 -29 -113 -35 -183 -17 -65 17 -232 36 -252 28 -37
-14 47 -63 110 -63 17 0 66 -8 107 -17 53 -12 124 -17 245 -18 261 -2 268 6
143 149 -21 23 -50 71 -66 107 -16 35 -43 81 -59 101 -17 21 -36 52 -43 70 -8
18 -37 62 -65 98 -29 36 -58 76 -65 90 -7 14 -28 43 -47 66 -18 23 -33 45 -33
50 0 5 -17 25 -36 44 -19 19 -50 58 -69 85 -18 28 -67 90 -109 138 -95 111
-100 120 -78 139 29 25 53 29 87 12 48 -22 249 -236 291 -308 20 -34 53 -83
74 -111 56 -73 194 -294 235 -375 46 -92 96 -159 118 -159 10 -1 33 10 51 24
36 27 56 32 55 13 -1 -23 -58 -61 -84 -55 -37 7 -31 -12 30 -89 30 -38 64 -86
75 -107 25 -46 46 -56 68 -33 23 23 21 122 -6 251 -12 55 -26 147 -33 205 -6
58 -18 125 -27 150 -11 30 -17 84 -18 160 -3 148 -2 140 -17 140 -21 0 -39
-40 -44 -99 -6 -62 39 -359 63 -425 13 -34 13 -41 1 -54 -8 -8 -23 -11 -34 -8
-33 10 -100 88 -137 159 -30 57 -36 79 -36 130 -1 34 -5 82 -11 107 -43 188
-45 310 -8 423 10 31 19 69 19 83 0 43 68 154 95 154 7 0 26 -17 42 -37z
m-4197 -406 c0 -20 -66 -78 -157 -140 -46 -31 -129 -93 -185 -139 -57 -46
-139 -109 -183 -140 -142 -102 -159 -123 -128 -162 10 -12 45 -58 77 -102 33
-43 87 -111 120 -150 34 -39 106 -133 161 -209 55 -76 129 -177 165 -224 35
-47 80 -109 100 -137 19 -28 69 -94 111 -145 41 -52 97 -125 125 -164 27 -38
76 -99 109 -135 34 -36 107 -126 162 -200 165 -219 341 -439 515 -641 88 -102
92 -112 68 -134 -18 -16 -21 -16 -72 10 -29 15 -78 40 -108 55 -30 15 -82 37
-116 48 -34 11 -83 32 -110 46 -35 19 -64 26 -103 26 -30 0 -97 8 -148 17 -89
15 -98 15 -168 -1 -61 -14 -80 -15 -114 -5 -22 6 -42 17 -44 23 -2 6 20 74 50
151 51 133 53 144 49 215 -7 132 -26 174 -119 265 -50 48 -104 90 -137 107
-93 44 -168 70 -189 63 -22 -7 -37 -45 -46 -115 -10 -67 -23 -87 -93 -137
-161 -115 -266 -241 -303 -365 -23 -75 -22 -113 5 -243 9 -43 14 -85 12 -91
-3 -7 -26 -19 -53 -28 -58 -19 -166 -104 -189 -148 -30 -59 -54 -141 -54 -187
1 -114 115 -244 243 -275 45 -11 77 -49 77 -93 0 -21 14 -80 30 -132 25 -80
37 -102 82 -151 29 -31 61 -69 70 -83 10 -14 28 -28 40 -30 13 -2 6 -5 -17 -5
-42 -2 -97 19 -155 59 -53 36 -114 83 -125 95 -5 6 -36 32 -67 57 -94 75 -197
188 -235 257 -20 36 -45 81 -57 100 -12 19 -37 71 -55 115 -18 44 -48 112 -66
150 -19 39 -40 95 -49 125 -8 30 -28 96 -45 145 -37 115 -60 240 -72 385 -4
63 -14 147 -20 185 -15 92 -12 204 7 232 8 13 25 30 39 39 23 15 28 15 72 -2
26 -10 68 -29 93 -43 36 -20 59 -25 113 -24 67 0 69 1 113 44 58 57 69 78 101
202 21 79 27 126 27 207 0 141 -28 211 -160 410 -51 76 -94 223 -94 318 0 54
42 246 68 312 16 40 99 137 145 168 69 48 273 152 296 152 27 0 160 50 258 97
40 19 76 32 82 29 6 -4 36 8 68 26 32 18 83 38 113 44 72 16 70 16 70 1z
m1585 -398 c73 -20 105 -41 126 -80 32 -64 58 -75 140 -61 75 13 168 16 194 6
17 -7 43 -51 55 -95 10 -33 -9 -66 -73 -129 -48 -48 -67 -94 -49 -112 8 -8 26
-7 63 5 96 31 133 17 166 -61 23 -54 19 -127 -11 -205 -25 -66 -27 -119 -5
-133 30 -18 -15 -153 -73 -219 -35 -40 -44 -45 -82 -45 -34 0 -48 6 -74 33
-17 18 -37 47 -43 65 -14 40 -60 67 -88 52 -33 -17 -35 -47 -6 -105 44 -90 47
-110 21 -147 -26 -39 -101 -70 -160 -66 -38 3 -41 5 -75 73 -51 100 -69 104
-153 33 -70 -60 -122 -83 -156 -71 -30 12 -93 110 -99 153 -5 35 0 45 61 120
36 45 66 86 66 90 0 5 -12 22 -26 39 -31 37 -62 39 -149 12 l-60 -20 -36 37
c-34 35 -35 38 -22 65 8 15 17 51 20 79 5 39 15 60 45 95 21 24 38 50 38 56 0
7 -9 32 -21 56 -19 44 -19 46 -2 115 22 87 57 126 111 126 49 0 104 -45 128
-105 23 -54 49 -59 107 -20 47 32 48 62 7 140 -16 31 -30 67 -30 79 0 12 14
43 30 69 17 26 30 52 30 57 0 8 28 29 40 30 3 0 23 -5 45 -11z m974 -764 c117
-36 231 -65 260 -65 17 0 53 -11 79 -24 26 -13 72 -26 102 -29 30 -4 80 -16
110 -28 30 -11 84 -27 119 -35 35 -8 101 -32 147 -54 46 -23 101 -47 123 -55
22 -7 63 -30 91 -49 29 -20 71 -41 93 -47 23 -6 74 -28 114 -50 40 -21 78 -39
86 -39 12 0 84 -37 222 -115 28 -16 64 -41 81 -55 17 -15 58 -42 90 -60 32
-19 72 -44 88 -57 16 -13 52 -36 80 -50 28 -14 65 -36 81 -47 17 -12 44 -28
60 -36 17 -8 59 -34 95 -58 36 -24 81 -50 100 -58 57 -24 148 -87 162 -112 10
-19 10 -25 -2 -32 -28 -18 -83 -10 -136 20 -42 23 -58 27 -81 21 -53 -17 -238
-109 -254 -128 -9 -10 -37 -54 -62 -99 -48 -83 -114 -152 -252 -266 -124 -103
-309 -184 -550 -243 l-110 -27 -90 31 c-49 18 -98 40 -109 50 -18 18 -17 19
10 36 16 9 58 53 94 97 118 144 173 195 305 283 165 109 250 150 454 220 161
56 165 57 198 41 18 -9 33 -22 33 -29 0 -7 -34 -37 -76 -67 -42 -30 -100 -73
-128 -96 -50 -40 -65 -51 -182 -128 -32 -22 -83 -55 -112 -75 -30 -20 -74 -48
-100 -62 -54 -30 -72 -53 -55 -70 9 -9 20 -8 45 4 18 8 52 20 74 26 23 6 47
18 54 26 7 8 36 28 64 45 138 78 289 190 322 237 46 68 119 143 138 143 9 0
36 15 60 34 25 19 61 39 81 46 44 14 36 28 -33 60 -26 12 -63 35 -82 50 -33
26 -89 65 -295 206 -49 34 -117 75 -150 91 -62 30 -115 61 -246 145 l-76 48
-80 -9 c-70 -7 -88 -14 -141 -50 -87 -59 -176 -144 -239 -229 -29 -40 -61 -76
-69 -79 -8 -3 -44 -40 -79 -82 -80 -94 -199 -193 -299 -249 -43 -24 -130 -58
-199 -79 -67 -20 -128 -43 -135 -50 -24 -23 -75 -15 -112 17 l-35 30 70 63
c157 141 249 236 308 321 110 158 119 170 170 231 81 97 142 135 295 181 89
26 94 27 127 11 57 -27 46 -44 -60 -98 -33 -17 -73 -41 -90 -53 -16 -13 -61
-41 -100 -64 -38 -22 -86 -58 -106 -79 -50 -53 -125 -183 -105 -183 19 0 45
23 100 89 39 47 85 89 121 111 142 87 205 131 270 189 77 70 163 116 201 108
39 -7 37 9 -4 28 -20 10 -82 39 -137 65 -177 85 -256 120 -318 140 -33 11 -70
26 -81 34 -12 7 -55 16 -96 20 -41 4 -109 16 -151 27 -62 16 -103 19 -218 17
l-142 -3 -35 37 c-19 21 -34 42 -34 47 0 5 30 12 68 16 37 3 83 10 102 15 49
11 48 12 99 -5z m3986 -29 c44 -9 97 -19 119 -22 29 -4 48 -16 80 -51 39 -43
184 -157 272 -215 22 -14 69 -50 104 -80 35 -29 90 -71 121 -93 32 -22 103
-76 158 -120 103 -82 249 -180 305 -203 29 -13 32 -12 59 18 33 37 34 59 5 87
-164 156 -169 158 -238 123 -64 -33 -90 -21 -76 35 8 30 30 43 103 56 47 9 67
19 103 53 61 57 128 83 170 66 35 -14 60 -55 60 -97 0 -15 13 -55 29 -89 16
-34 32 -81 36 -105 4 -24 14 -61 22 -81 27 -68 0 -112 -94 -154 -35 -15 -85
-56 -152 -121 -217 -212 -285 -266 -330 -266 -15 0 -44 11 -66 26 -128 84
-151 104 -175 149 -24 45 -24 48 -7 65 23 23 50 7 57 -32 7 -41 32 -53 64 -32
39 26 32 51 -28 100 -198 161 -352 320 -424 437 -15 24 -68 87 -118 140 -49
52 -101 113 -114 135 -13 22 -42 57 -64 78 -47 44 -91 49 -138 16 -26 -19 -29
-26 -26 -68 3 -42 1 -46 -20 -49 -15 -2 -39 9 -68 33 -41 34 -44 40 -44 84 0
31 -5 53 -15 61 -21 17 -19 29 8 51 57 48 99 71 144 79 54 9 65 9 178 -14z
m-44 -324 c39 -19 227 -211 276 -282 17 -25 43 -56 57 -69 14 -14 26 -31 26
-39 0 -8 -17 -46 -37 -85 -26 -49 -69 -104 -144 -181 -58 -61 -133 -142 -166
-181 -96 -112 -273 -268 -398 -350 -69 -46 -189 -163 -234 -229 -51 -73 -201
-173 -320 -211 -45 -15 -76 -16 -210 -11 -158 7 -221 22 -221 53 0 17 52 49
115 70 44 14 60 15 137 4 77 -11 91 -11 122 4 51 24 106 89 106 124 0 22 12
37 58 74 95 76 182 162 182 180 0 10 -7 20 -16 24 -24 9 -72 -19 -147 -86 -37
-33 -94 -79 -127 -101 -80 -54 -277 -150 -309 -150 -14 0 -84 -20 -155 -44
-70 -25 -134 -42 -141 -40 -16 6 -26 40 -18 60 6 16 86 74 101 74 9 0 43 21
306 189 71 46 138 86 150 91 12 4 58 37 102 72 45 36 96 70 113 78 51 21 54
82 8 136 l-24 27 -11 -44 c-15 -58 -62 -121 -120 -160 -63 -43 -202 -128 -264
-161 -28 -15 -58 -34 -67 -41 -9 -8 -54 -34 -100 -57 -68 -34 -90 -40 -118
-35 -19 3 -37 13 -40 21 -7 19 100 132 187 198 36 27 85 68 110 91 53 49 234
185 314 235 57 35 66 52 42 83 -21 27 -42 20 -83 -29 -21 -25 -74 -69 -118
-98 -44 -29 -114 -80 -155 -112 -41 -33 -100 -79 -130 -103 -30 -23 -101 -93
-158 -154 -100 -110 -202 -190 -232 -184 -46 9 14 217 90 313 22 27 56 73 77
103 78 111 212 256 356 385 77 70 99 101 82 118 -3 3 -22 -3 -43 -13 -49 -25
-122 -26 -122 -1 0 24 135 155 188 182 35 19 52 21 97 15 54 -6 235 7 350 26
33 5 96 14 140 19 68 7 97 17 205 71 69 34 154 82 189 106 70 47 89 51 142 25z
m2913 -604 c34 -92 47 -178 40 -262 -8 -105 -28 -147 -104 -232 -49 -53 -78
-98 -123 -194 l-61 -125 0 -112 c-1 -92 2 -115 16 -129 31 -31 63 -10 134 86
54 73 73 92 103 100 52 14 60 13 73 -15 10 -22 6 -35 -25 -99 -43 -86 -80
-203 -97 -307 -11 -70 -10 -81 15 -179 15 -58 33 -132 40 -165 8 -33 26 -95
41 -138 22 -65 25 -82 15 -103 -17 -37 -42 -26 -71 30 -14 27 -45 71 -69 98
-24 27 -55 72 -70 101 -29 58 -116 126 -162 127 -14 0 -77 11 -139 25 -141 31
-182 31 -265 1 -70 -25 -108 -54 -131 -98 -21 -40 -17 -45 14 -16 15 14 36 28
47 30 11 3 56 16 100 28 134 37 213 17 349 -85 120 -90 242 -275 270 -411 21
-100 13 -342 -14 -393 -10 -20 -21 -53 -25 -73 -4 -20 -21 -58 -38 -84 -38
-57 -99 -91 -210 -117 -68 -17 -76 -21 -104 -61 -43 -60 -125 -100 -193 -94
-39 4 -61 14 -105 49 -31 24 -74 58 -97 74 l-40 30 -19 -24 c-16 -19 -19 -33
-14 -62 9 -50 -18 -69 -97 -69 -45 0 -71 7 -114 30 -126 67 -267 190 -309 269
-11 21 -38 65 -61 98 -82 123 -139 339 -137 522 l2 114 38 56 c21 30 51 62 67
70 15 9 44 26 63 39 18 12 36 22 39 22 3 0 4 -107 2 -237 l-2 -238 29 -75 c45
-116 68 -149 163 -240 144 -137 154 -142 307 -160 142 -16 185 -6 304 74 110
73 135 98 183 181 55 97 92 202 92 267 1 48 -4 63 -31 100 -18 24 -46 66 -62
94 -29 50 -174 194 -221 219 -14 7 -61 15 -105 18 -72 4 -84 2 -124 -21 l-44
-26 -18 23 c-37 45 -18 174 38 259 42 65 102 132 118 132 7 0 40 -9 74 -20 34
-12 71 -18 81 -15 10 3 28 27 40 52 26 56 17 88 -28 97 -15 4 -45 20 -65 37
-53 44 -78 119 -84 254 -5 107 -4 113 32 219 24 71 53 132 81 172 47 68 136
157 187 188 98 60 225 147 242 166 11 13 47 40 80 61 33 21 73 54 88 74 15 19
34 35 42 35 7 0 20 -19 29 -42z m-3174 -879 c36 -12 76 -30 90 -40 119 -78
114 -77 316 -73 98 2 193 1 209 -4 21 -6 35 -20 48 -48 22 -46 55 -84 74 -84
27 0 12 -19 -32 -40 -39 -19 -49 -20 -80 -10 -23 8 -54 9 -88 4 -68 -10 -75
-9 -152 31 -36 19 -111 48 -168 66 -56 17 -114 37 -129 45 -14 8 -42 14 -60
14 -22 0 -42 7 -53 20 -10 11 -24 20 -30 20 -16 0 -102 76 -116 103 -9 16 -9
19 3 14 8 -3 30 -2 49 3 39 9 34 10 119 -21z m-5768 -259 c35 -16 88 -51 118
-77 30 -27 72 -61 93 -76 44 -33 68 -77 109 -201 41 -123 51 -325 23 -435
l-19 -71 37 -32 c27 -24 35 -37 28 -47 -7 -11 -14 -10 -39 8 -17 11 -34 21
-39 21 -4 0 -21 -18 -36 -40 -58 -83 -191 -130 -361 -130 -147 1 -204 19 -242
76 -12 17 -11 24 11 56 14 20 25 49 25 63 0 44 -63 145 -90 145 -6 0 -10 4
-10 9 0 10 8 12 125 42 83 21 155 55 155 73 0 5 -8 19 -19 30 -35 40 -87 121
-105 165 -13 35 -17 74 -17 180 0 117 2 138 19 160 33 44 121 111 147 111 14
0 53 -13 87 -30z m5397 -41 c69 -81 236 -262 324 -351 59 -60 97 -108 98 -121
1 -12 0 -52 -1 -89 -2 -81 23 -141 88 -206 23 -23 42 -45 42 -47 0 -3 -19 -5
-43 -5 -34 0 -48 6 -72 32 -43 44 -85 110 -85 131 0 10 -24 44 -54 75 -30 31
-68 81 -85 109 -17 29 -54 82 -83 117 -29 35 -80 105 -113 156 -33 50 -72 110
-87 133 -34 50 -35 75 -5 87 37 15 48 11 76 -21z m-356 -46 c32 -35 82 -169
108 -293 24 -111 40 -390 30 -530 -7 -110 -21 -139 -81 -170 -52 -26 -57 -26
-76 11 -15 29 -14 34 4 78 18 42 20 63 15 271 -4 235 -9 281 -43 443 -11 55
-20 108 -20 118 0 11 -14 28 -32 39 l-32 19 26 10 c14 5 29 15 33 20 11 19 40
12 68 -16z m2053 -838 c9 -8 26 -15 38 -15 30 0 46 -38 92 -215 19 -77 46
-158 59 -180 43 -75 126 -180 186 -237 62 -60 70 -75 42 -85 -19 -7 -132 14
-149 28 -7 5 -40 23 -75 40 -90 44 -173 111 -218 177 -21 31 -53 74 -70 96
-17 21 -31 44 -31 51 0 7 -16 36 -35 65 -19 29 -35 56 -35 62 0 5 12 19 26 31
15 12 51 44 81 72 l55 49 19 -24 19 -25 -1 25 c0 14 -6 36 -14 50 -25 43 -18
64 11 35z"/>
<path d="M6353 11973 c-40 -43 -73 -83 -73 -89 0 -6 8 -18 18 -27 16 -14 43
-17 170 -17 212 0 251 21 144 78 -32 17 -79 54 -105 82 -25 27 -54 50 -64 50
-9 0 -50 -35 -90 -77z"/>
<path d="M7830 11083 c0 -4 19 -21 42 -38 23 -16 70 -55 105 -87 35 -31 96
-78 136 -104 39 -26 102 -70 138 -98 37 -28 86 -63 110 -78 24 -15 70 -46 101
-70 47 -34 60 -40 70 -29 11 10 5 20 -29 49 -56 49 -143 115 -223 171 -36 25
-81 59 -101 76 -34 30 -210 139 -246 152 -10 3 -37 19 -60 35 -24 16 -43 25
-43 21z"/>
<path d="M6601 10774 c-52 -21 -105 -35 -140 -37 -51 -3 -56 -6 -56 -27 0 -41
26 -46 107 -21 86 28 218 88 218 100 0 9 -25 22 -38 20 -4 0 -45 -16 -91 -35z"/>
<path d="M6711 10669 c-32 -24 -66 -36 -134 -50 -51 -10 -102 -19 -114 -19
-29 0 -30 -29 -4 -61 l19 -23 48 21 c27 12 77 29 111 37 69 17 132 46 152 70
9 11 10 20 1 35 -15 28 -29 26 -79 -10z"/>
<path d="M6735 10505 c-27 -13 -75 -28 -105 -34 -73 -15 -88 -25 -74 -48 14
-22 48 -21 134 4 74 22 172 73 167 88 -7 19 -72 14 -122 -10z"/>
<path d="M5150 10439 c0 -46 10 -70 54 -120 57 -67 106 -140 106 -160 0 -11
-7 -34 -16 -51 l-16 -31 -64 64 c-35 35 -64 67 -64 72 0 12 -109 189 -133 215
-46 49 -72 6 -35 -58 51 -89 147 -217 215 -289 46 -49 84 -102 107 -148 20
-40 36 -75 36 -79 0 -14 96 -194 159 -298 74 -123 117 -202 157 -289 14 -32
33 -61 41 -64 40 -16 41 78 1 126 -14 15 -30 44 -37 62 -28 76 -76 168 -135
258 -114 173 -156 244 -156 263 0 20 32 43 73 53 36 9 40 18 32 72 -5 38 -18
57 -79 122 -39 42 -102 127 -140 188 -38 60 -77 115 -87 122 -17 10 -19 8 -19
-30z"/>
<path d="M5532 10419 c-37 -82 -39 -110 -7 -142 33 -33 70 -35 124 -7 38 19
81 73 81 102 0 28 -84 82 -145 93 -28 5 -31 3 -53 -46z"/>
<path d="M6825 10374 c-27 -13 -76 -26 -108 -30 -65 -8 -75 -16 -56 -50 16
-31 29 -30 130 6 83 29 137 68 125 89 -10 16 -35 12 -91 -15z"/>
<path d="M5886 10220 c-14 -17 -28 -46 -32 -66 -6 -31 -3 -38 26 -64 74 -66
129 -62 151 9 8 26 9 48 3 60 -11 24 -92 91 -109 91 -7 0 -25 -14 -39 -30z"/>
<path d="M6870 10220 c-36 -10 -86 -19 -112 -19 -27 -1 -48 -3 -48 -6 0 -15
31 -63 44 -68 24 -10 87 12 159 55 100 60 85 74 -43 38z"/>
<path d="M5639 9991 c-37 -37 -37 -66 1 -123 60 -91 96 -104 145 -55 48 48 47
84 -2 138 -32 35 -85 69 -108 69 -4 0 -20 -13 -36 -29z"/>
<path d="M1826 8732 c-3 -9 1 -56 9 -102 20 -113 19 -153 -5 -200 -22 -43 -73
-78 -154 -104 -66 -22 -86 -33 -124 -69 -76 -73 -60 -237 24 -237 12 0 27 6
33 14 13 16 5 39 -30 85 -11 13 -19 29 -19 35 0 23 116 136 139 136 26 0 129
61 159 93 35 39 45 91 37 202 -5 74 -12 111 -26 134 -21 35 -35 39 -43 13z"/>
<path d="M7330 9913 c-25 -8 -56 -23 -70 -33 -14 -9 -42 -23 -62 -29 -20 -7
-54 -24 -74 -38 -21 -14 -64 -38 -97 -54 -37 -18 -82 -52 -121 -92 -33 -35
-88 -83 -121 -107 -66 -48 -105 -85 -105 -101 0 -15 -116 -182 -165 -237 -51
-58 -92 -131 -146 -259 -41 -98 -54 -137 -91 -268 -11 -38 -31 -104 -45 -145
-14 -41 -29 -102 -34 -135 -5 -33 -13 -74 -18 -91 -16 -58 34 -74 88 -29 22
19 32 40 40 78 6 29 15 75 20 102 30 152 98 343 175 489 35 68 78 158 95 201
36 90 96 179 216 322 116 139 245 248 375 317 25 13 70 40 100 60 30 20 64 36
76 36 12 0 27 7 34 15 10 12 9 15 -6 15 -11 -1 -39 -8 -64 -17z"/>
<path d="M7403 7358 c-17 -18 -39 -51 -50 -73 -16 -34 -27 -43 -84 -65 -80
-30 -229 -127 -229 -148 0 -8 17 -35 37 -60 21 -25 48 -62 61 -81 13 -20 46
-57 74 -82 48 -43 52 -50 63 -115 13 -79 24 -86 76 -52 26 18 36 34 44 68 9
39 16 48 70 82 33 20 71 53 84 73 27 40 75 54 120 35 31 -12 56 -5 81 24 17
22 1 39 -65 70 -48 22 -105 78 -105 104 0 6 -24 35 -54 64 -67 67 -81 91 -61
108 27 23 13 80 -20 80 -6 0 -25 -15 -42 -32z m42 -213 c23 -22 25 -32 25
-112 0 -48 -4 -94 -8 -101 -12 -19 -116 -33 -152 -21 -37 13 -74 86 -75 148 0
49 20 71 91 96 58 21 92 18 119 -10z"/>
<path d="M7930 5864 c-100 -98 -115 -117 -160 -208 -28 -56 -50 -111 -50 -124
0 -43 29 -22 61 46 77 163 151 264 237 323 41 29 52 51 32 64 -5 3 -59 -42
-120 -101z"/>
<path d="M5212 6768 c-15 -15 -15 -43 -1 -83 10 -27 8 -38 -19 -90 l-30 -60
14 -93 c8 -51 23 -110 34 -132 11 -22 20 -48 20 -58 0 -38 22 -82 41 -82 22 0
142 40 247 81 40 16 82 29 93 29 11 0 37 -18 58 -40 42 -44 52 -47 75 -24 26
25 19 54 -24 100 -44 48 -47 67 -26 135 8 24 17 57 21 72 3 16 24 48 45 71 43
47 47 60 26 82 -18 17 -42 18 -101 2 -43 -12 -49 -11 -95 15 -54 31 -106 35
-151 11 -39 -20 -80 -7 -137 41 -42 36 -70 43 -90 23z m337 -152 c10 -21 11
-51 6 -122 -6 -84 -10 -97 -34 -123 -49 -52 -126 -53 -182 -3 -36 33 -60 125
-42 165 24 52 144 118 208 114 22 -2 33 -9 44 -31z"/>
<path d="M1147 4368 c-3 -11 -2 -44 4 -71 8 -47 17 -63 46 -94 6 -7 17 -37 24
-67 10 -44 9 -64 -2 -103 -17 -61 -14 -93 11 -117 25 -25 39 -14 47 40 3 21
14 56 24 76 27 52 24 65 -22 133 -23 33 -59 97 -81 143 -22 45 -41 82 -43 82
-1 0 -5 -10 -8 -22z"/>
<path d="M901 2925 c0 -23 15 -130 28 -195 40 -196 53 -254 74 -315 39 -112
117 -266 163 -321 23 -27 57 -75 74 -105 35 -60 59 -89 72 -89 19 0 5 32 -37
83 -24 30 -61 93 -81 139 -20 45 -47 97 -59 113 -37 48 -81 146 -94 205 -7 30
-28 100 -47 155 -19 55 -37 126 -41 157 -6 60 -51 209 -52 173z"/>
<path d="M2242 2451 c-10 -6 -12 -22 -7 -62 6 -48 3 -63 -29 -136 -47 -107
-54 -141 -31 -149 24 -9 45 20 45 62 0 20 13 51 36 84 66 95 76 163 31 195
-25 17 -27 18 -45 6z"/>
<path d="M4295 1180 c-11 -5 -42 -27 -68 -49 -63 -53 -147 -65 -244 -35 -18 5
-23 2 -23 -13 0 -11 9 -28 21 -39 31 -28 164 -22 227 10 83 42 134 85 130 108
-4 25 -15 30 -43 18z"/>
<path d="M1500 881 c-7 -15 -4 -32 15 -73 14 -29 28 -70 31 -91 8 -47 34 -63
72 -45 32 16 32 42 1 112 -20 47 -78 116 -97 116 -6 0 -16 -9 -22 -19z"/>
<path d="M4088 713 c-10 -2 -18 -11 -18 -19 0 -8 -1 -17 -2 -21 -2 -5 14 -8
35 -9 32 -1 47 -10 92 -55 31 -31 67 -80 84 -114 34 -72 62 -99 90 -90 28 9
26 29 -3 53 -14 10 -37 50 -52 87 -47 118 -144 190 -226 168z"/>
<path d="M4228 4875 c-39 -42 -65 -60 -118 -80 -38 -15 -86 -39 -107 -54 -21
-15 -59 -35 -84 -44 -59 -22 -97 -60 -80 -81 6 -7 23 -42 36 -76 27 -69 150
-291 178 -321 10 -10 27 -19 39 -19 25 0 125 72 212 151 73 67 91 77 170 96
33 7 64 19 67 25 12 19 -20 69 -71 115 -26 23 -55 60 -65 80 -10 21 -28 50
-42 64 -21 23 -23 34 -21 91 2 53 -1 70 -16 87 -11 12 -26 21 -34 21 -8 0 -37
-25 -64 -55z m9 -187 c29 -32 53 -83 53 -111 0 -50 -31 -113 -83 -164 -59 -61
-91 -67 -151 -32 -37 22 -106 116 -106 145 0 27 110 145 154 165 58 25 108 24
133 -3z"/>
<path d="M2859 13353 c-11 -13 -11 -17 -1 -20 20 -7 14 -31 -10 -35 -17 -2
-24 -12 -30 -42 -5 -21 -21 -64 -37 -95 -43 -83 -44 -88 -13 -109 15 -10 36
-23 47 -27 19 -8 19 -9 -2 -12 -13 -3 -23 -8 -23 -13 0 -20 -35 -19 -56 1 -17
15 -30 20 -48 15 -51 -13 -72 -87 -28 -100 23 -7 166 10 229 28 62 18 248 114
316 163 54 40 75 74 84 138 4 35 2 50 -11 64 -16 17 -21 18 -54 6 -20 -8 -66
-20 -102 -28 -76 -18 -100 -11 -168 47 -48 40 -72 45 -93 19z"/>
</g>
</svg>
